<mxfile>
    <diagram id="XoIxlh2rlKOLlVUVnwRR" name="sbox">
        <mxGraphModel dx="468" dy="364" grid="1" gridSize="10" guides="1" tooltips="1" connect="1" arrows="1" fold="1" page="1" pageScale="1" pageWidth="827" pageHeight="1169" math="0" shadow="0">
            <root>
                <mxCell id="4TLbXSEBGWxuBGP1JsOU-0"/>
                <mxCell id="4TLbXSEBGWxuBGP1JsOU-1" parent="4TLbXSEBGWxuBGP1JsOU-0"/>
                <mxCell id="F6zRaurLQYgT27KF4blW-13" value="" style="group" vertex="1" connectable="0" parent="4TLbXSEBGWxuBGP1JsOU-1">
                    <mxGeometry x="320" y="50" width="420" height="270" as="geometry"/>
                </mxCell>
                <mxCell id="9" value="" style="endArrow=classic;html=1;strokeColor=#FFFFFF;strokeWidth=2;fontSize=12;fontColor=#FFFFFF;exitX=0.5;exitY=1;exitDx=0;exitDy=0;verticalAlign=middle;" parent="F6zRaurLQYgT27KF4blW-13" edge="1">
                    <mxGeometry x="-0.13999999999998636" y="121.49999999999997" width="100" height="67.49999999999999" as="geometry">
                        <mxPoint x="39.51999999999998" y="148.49999999999997" as="sourcePoint"/>
                        <mxPoint x="39.51999999999998" y="202.5" as="targetPoint"/>
                    </mxGeometry>
                </mxCell>
                <mxCell id="10" value="" style="endArrow=classic;html=1;strokeColor=#FFFFFF;strokeWidth=2;fontSize=12;fontColor=#FFFFFF;exitX=0.5;exitY=1;exitDx=0;exitDy=0;verticalAlign=middle;" parent="F6zRaurLQYgT27KF4blW-13" edge="1">
                    <mxGeometry x="79.86000000000001" y="121.49999999999997" width="100" height="67.49999999999999" as="geometry">
                        <mxPoint x="119.51999999999953" y="148.4999999999999" as="sourcePoint"/>
                        <mxPoint x="119.51999999999998" y="202.5" as="targetPoint"/>
                    </mxGeometry>
                </mxCell>
                <mxCell id="11" value="" style="endArrow=classic;html=1;strokeColor=#FFFFFF;strokeWidth=2;fontSize=12;fontColor=#FFFFFF;exitX=0.5;exitY=1;exitDx=0;exitDy=0;verticalAlign=middle;" parent="F6zRaurLQYgT27KF4blW-13" edge="1">
                    <mxGeometry x="159.86" y="121.49999999999997" width="100" height="67.49999999999999" as="geometry">
                        <mxPoint x="199.5199999999995" y="148.4999999999999" as="sourcePoint"/>
                        <mxPoint x="199.51999999999998" y="202.5" as="targetPoint"/>
                    </mxGeometry>
                </mxCell>
                <mxCell id="12" value="" style="endArrow=classic;html=1;strokeColor=#FFFFFF;strokeWidth=2;fontSize=12;fontColor=#FFFFFF;exitX=0.5;exitY=1;exitDx=0;exitDy=0;verticalAlign=middle;" parent="F6zRaurLQYgT27KF4blW-13" edge="1">
                    <mxGeometry x="239.85999999999999" y="121.49999999999997" width="100" height="67.49999999999999" as="geometry">
                        <mxPoint x="279.51999999999947" y="148.4999999999999" as="sourcePoint"/>
                        <mxPoint x="279.52" y="202.5" as="targetPoint"/>
                    </mxGeometry>
                </mxCell>
                <mxCell id="QC3Ma4_8gPWblB5wmnyA-1" value="" style="endArrow=classic;html=1;strokeColor=#FFFFFF;strokeWidth=2;fontSize=12;fontColor=#FFFFFF;exitX=0.5;exitY=1;exitDx=0;exitDy=0;verticalAlign=middle;" parent="F6zRaurLQYgT27KF4blW-13" edge="1">
                    <mxGeometry x="0.3400000000000318" y="40.5" width="100" height="67.49999999999999" as="geometry">
                        <mxPoint x="39.999999999999886" y="67.49999999999999" as="sourcePoint"/>
                        <mxPoint x="40" y="121.49999999999997" as="targetPoint"/>
                    </mxGeometry>
                </mxCell>
                <mxCell id="rXIuhMBb3RFu1Folmwmf-2" value="" style="endArrow=classic;html=1;strokeColor=#FFFFFF;strokeWidth=2;fontSize=12;fontColor=#FFFFFF;exitX=0.5;exitY=1;exitDx=0;exitDy=0;verticalAlign=middle;" parent="F6zRaurLQYgT27KF4blW-13" edge="1">
                    <mxGeometry x="80.34000000000002" y="40.5" width="100" height="67.49999999999999" as="geometry">
                        <mxPoint x="119.99999999999966" y="67.49999999999991" as="sourcePoint"/>
                        <mxPoint x="120" y="121.49999999999997" as="targetPoint"/>
                    </mxGeometry>
                </mxCell>
                <mxCell id="rXIuhMBb3RFu1Folmwmf-4" value="" style="endArrow=classic;html=1;strokeColor=#FFFFFF;strokeWidth=2;fontSize=12;fontColor=#FFFFFF;exitX=0.5;exitY=1;exitDx=0;exitDy=0;verticalAlign=middle;" parent="F6zRaurLQYgT27KF4blW-13" edge="1">
                    <mxGeometry x="160.34000000000003" y="40.5" width="100" height="67.49999999999999" as="geometry">
                        <mxPoint x="199.99999999999966" y="67.49999999999991" as="sourcePoint"/>
                        <mxPoint x="200" y="121.49999999999997" as="targetPoint"/>
                    </mxGeometry>
                </mxCell>
                <mxCell id="rXIuhMBb3RFu1Folmwmf-6" value="" style="endArrow=classic;html=1;strokeColor=#FFFFFF;strokeWidth=2;fontSize=12;fontColor=#FFFFFF;exitX=0.5;exitY=1;exitDx=0;exitDy=0;verticalAlign=middle;" parent="F6zRaurLQYgT27KF4blW-13" edge="1">
                    <mxGeometry x="240.34" y="40.5" width="100" height="67.49999999999999" as="geometry">
                        <mxPoint x="279.9999999999996" y="67.49999999999991" as="sourcePoint"/>
                        <mxPoint x="280" y="121.49999999999997" as="targetPoint"/>
                    </mxGeometry>
                </mxCell>
                <mxCell id="QC3Ma4_8gPWblB5wmnyA-6" value="&lt;div style=&quot;font-size: 12px ; line-height: 19px&quot;&gt;8bits&lt;/div&gt;" style="rounded=0;whiteSpace=wrap;html=1;fontSize=12;strokeWidth=3;fontStyle=1;strokeColor=#999999;labelBackgroundColor=none;verticalAlign=middle;" parent="F6zRaurLQYgT27KF4blW-13" vertex="1">
                    <mxGeometry y="40.5" width="80" height="27" as="geometry"/>
                </mxCell>
                <mxCell id="rXIuhMBb3RFu1Folmwmf-0" value="" style="endArrow=classic;html=1;strokeColor=#FFFFFF;strokeWidth=2;fontSize=12;fontColor=#FFFFFF;verticalAlign=middle;entryX=1;entryY=0.5;entryDx=0;entryDy=0;exitX=0;exitY=0.5;exitDx=0;exitDy=0;" parent="F6zRaurLQYgT27KF4blW-13" target="rXIuhMBb3RFu1Folmwmf-9" edge="1" source="rXIuhMBb3RFu1Folmwmf-8">
                    <mxGeometry x="260.34" y="53.676" width="100" height="67.49999999999999" as="geometry">
                        <mxPoint x="380" y="134.99999999999997" as="sourcePoint"/>
                        <mxPoint x="400" y="134.67599999999996" as="targetPoint"/>
                    </mxGeometry>
                </mxCell>
                <mxCell id="rXIuhMBb3RFu1Folmwmf-8" value="&lt;div style=&quot;font-size: 12px ; line-height: 19px&quot;&gt;i&lt;/div&gt;" style="rounded=0;whiteSpace=wrap;html=1;fontSize=12;strokeWidth=3;fontStyle=1;strokeColor=#999999;labelBackgroundColor=none;verticalAlign=middle;horizontal=1;" parent="F6zRaurLQYgT27KF4blW-13" vertex="1">
                    <mxGeometry x="350" y="121.49999999999997" width="40" height="27" as="geometry"/>
                </mxCell>
                <mxCell id="rXIuhMBb3RFu1Folmwmf-9" value="&lt;div style=&quot;font-size: 12px ; line-height: 19px&quot;&gt;Sbox&lt;sub&gt;i&lt;/sub&gt;&lt;/div&gt;" style="rounded=0;whiteSpace=wrap;html=1;fontSize=12;strokeWidth=3;fontStyle=1;strokeColor=#999999;labelBackgroundColor=none;verticalAlign=middle;horizontal=1;" parent="F6zRaurLQYgT27KF4blW-13" vertex="1">
                    <mxGeometry y="121.49999999999997" width="320" height="27" as="geometry"/>
                </mxCell>
                <mxCell id="rXIuhMBb3RFu1Folmwmf-21" value="4âœ–8bits" style="text;html=1;align=center;verticalAlign=middle;resizable=0;points=[];autosize=1;" parent="F6zRaurLQYgT27KF4blW-13" vertex="1">
                    <mxGeometry x="289.99999999999994" y="81" width="60" height="20" as="geometry"/>
                </mxCell>
                <mxCell id="0" value="&lt;span style=&quot;font-weight: 700&quot;&gt;Input 32bit&lt;/span&gt;" style="text;html=1;align=center;verticalAlign=middle;resizable=0;points=[];autosize=1;strokeColor=none;labelBorderColor=#FFFFFF;labelBackgroundColor=#ffffff;fontColor=#000000;" parent="F6zRaurLQYgT27KF4blW-13" vertex="1">
                    <mxGeometry x="120" y="10" width="80" height="20" as="geometry"/>
                </mxCell>
                <mxCell id="1" value="&lt;div style=&quot;font-size: 12px ; line-height: 19px&quot;&gt;8bits&lt;br&gt;&lt;/div&gt;" style="rounded=0;whiteSpace=wrap;html=1;fontSize=12;strokeWidth=3;fontStyle=1;strokeColor=#999999;labelBackgroundColor=none;verticalAlign=middle;" parent="F6zRaurLQYgT27KF4blW-13" vertex="1">
                    <mxGeometry x="80" y="40.5" width="80" height="27" as="geometry"/>
                </mxCell>
                <mxCell id="2" value="&lt;div style=&quot;font-size: 12px ; line-height: 19px&quot;&gt;8bits&lt;br&gt;&lt;/div&gt;" style="rounded=0;whiteSpace=wrap;html=1;fontSize=12;strokeWidth=3;fontStyle=1;strokeColor=#999999;labelBackgroundColor=none;verticalAlign=middle;" parent="F6zRaurLQYgT27KF4blW-13" vertex="1">
                    <mxGeometry x="160" y="40.5" width="80" height="27" as="geometry"/>
                </mxCell>
                <mxCell id="3" value="&lt;div style=&quot;font-size: 12px ; line-height: 19px&quot;&gt;8bits&lt;br&gt;&lt;/div&gt;" style="rounded=0;whiteSpace=wrap;html=1;fontSize=12;strokeWidth=3;fontStyle=1;strokeColor=#999999;labelBackgroundColor=none;verticalAlign=middle;" parent="F6zRaurLQYgT27KF4blW-13" vertex="1">
                    <mxGeometry x="240" y="40.5" width="80" height="27" as="geometry"/>
                </mxCell>
                <mxCell id="4" value="&lt;div style=&quot;font-size: 12px ; line-height: 19px&quot;&gt;8bits&lt;/div&gt;" style="rounded=0;whiteSpace=wrap;html=1;fontSize=12;strokeWidth=3;fontStyle=1;strokeColor=#999999;labelBackgroundColor=none;verticalAlign=middle;" parent="F6zRaurLQYgT27KF4blW-13" vertex="1">
                    <mxGeometry y="202.5" width="80" height="27" as="geometry"/>
                </mxCell>
                <mxCell id="5" value="&lt;div style=&quot;font-size: 12px ; line-height: 19px&quot;&gt;8bits&lt;br&gt;&lt;/div&gt;" style="rounded=0;whiteSpace=wrap;html=1;fontSize=12;strokeWidth=3;fontStyle=1;strokeColor=#999999;labelBackgroundColor=none;verticalAlign=middle;" parent="F6zRaurLQYgT27KF4blW-13" vertex="1">
                    <mxGeometry x="80" y="202.5" width="80" height="27" as="geometry"/>
                </mxCell>
                <mxCell id="6" value="&lt;div style=&quot;font-size: 12px ; line-height: 19px&quot;&gt;8bits&lt;br&gt;&lt;/div&gt;" style="rounded=0;whiteSpace=wrap;html=1;fontSize=12;strokeWidth=3;fontStyle=1;strokeColor=#999999;labelBackgroundColor=none;verticalAlign=middle;" parent="F6zRaurLQYgT27KF4blW-13" vertex="1">
                    <mxGeometry x="160" y="202.5" width="80" height="27" as="geometry"/>
                </mxCell>
                <mxCell id="7" value="&lt;div style=&quot;font-size: 12px ; line-height: 19px&quot;&gt;8bits&lt;br&gt;&lt;/div&gt;" style="rounded=0;whiteSpace=wrap;html=1;fontSize=12;strokeWidth=3;fontStyle=1;strokeColor=#999999;labelBackgroundColor=none;verticalAlign=middle;" parent="F6zRaurLQYgT27KF4blW-13" vertex="1">
                    <mxGeometry x="240" y="202.5" width="80" height="27" as="geometry"/>
                </mxCell>
                <mxCell id="13" value="&lt;span style=&quot;font-weight: 700&quot;&gt;Output 32bit&lt;/span&gt;" style="text;html=1;align=center;verticalAlign=middle;resizable=0;points=[];autosize=1;strokeColor=none;labelBorderColor=#FFFFFF;labelBackgroundColor=#ffffff;fontColor=#000000;" parent="F6zRaurLQYgT27KF4blW-13" vertex="1">
                    <mxGeometry x="115" y="242.99999999999994" width="90" height="20" as="geometry"/>
                </mxCell>
            </root>
        </mxGraphModel>
    </diagram>
    <diagram id="fEF-CpYHzhWyRua9MZdi" name="KeyHash">
        <mxGraphModel dx="561" dy="437" grid="1" gridSize="10" guides="1" tooltips="1" connect="1" arrows="1" fold="1" page="1" pageScale="1" pageWidth="827" pageHeight="1169" math="0" shadow="0">
            <root>
                <mxCell id="T8ddxWDzVPvkbGuIRAgN-0"/>
                <mxCell id="T8ddxWDzVPvkbGuIRAgN-1" parent="T8ddxWDzVPvkbGuIRAgN-0"/>
                <mxCell id="T8ddxWDzVPvkbGuIRAgN-2" value="" style="edgeStyle=orthogonalEdgeStyle;rounded=0;orthogonalLoop=1;jettySize=auto;html=1;fontSize=16;strokeWidth=3;fontStyle=1;strokeColor=#999999;" parent="T8ddxWDzVPvkbGuIRAgN-1" source="T8ddxWDzVPvkbGuIRAgN-22" target="T8ddxWDzVPvkbGuIRAgN-9" edge="1">
                    <mxGeometry relative="1" as="geometry">
                        <Array as="points">
                            <mxPoint x="230" y="140"/>
                            <mxPoint x="230" y="140"/>
                        </Array>
                    </mxGeometry>
                </mxCell>
                <mxCell id="T8ddxWDzVPvkbGuIRAgN-3" value="" style="edgeStyle=orthogonalEdgeStyle;rounded=0;orthogonalLoop=1;jettySize=auto;html=1;fontSize=16;strokeWidth=3;fontStyle=1;strokeColor=#999999;" parent="T8ddxWDzVPvkbGuIRAgN-1" source="T8ddxWDzVPvkbGuIRAgN-9" edge="1">
                    <mxGeometry relative="1" as="geometry">
                        <mxPoint x="230" y="240" as="targetPoint"/>
                    </mxGeometry>
                </mxCell>
                <mxCell id="T8ddxWDzVPvkbGuIRAgN-4" value="" style="edgeStyle=orthogonalEdgeStyle;rounded=0;orthogonalLoop=1;jettySize=auto;html=1;fontSize=16;strokeWidth=3;fontStyle=1;strokeColor=#999999;" parent="T8ddxWDzVPvkbGuIRAgN-1" source="T8ddxWDzVPvkbGuIRAgN-5" target="T8ddxWDzVPvkbGuIRAgN-9" edge="1">
                    <mxGeometry relative="1" as="geometry"/>
                </mxCell>
                <mxCell id="T8ddxWDzVPvkbGuIRAgN-5" value="M&lt;sub style=&quot;font-size: 16px;&quot;&gt;i&lt;/sub&gt;" style="rounded=0;whiteSpace=wrap;html=1;fontSize=16;strokeWidth=3;fontStyle=1;strokeColor=#999999;" parent="T8ddxWDzVPvkbGuIRAgN-1" vertex="1">
                    <mxGeometry x="140" y="160" width="40" height="40" as="geometry"/>
                </mxCell>
                <mxCell id="T8ddxWDzVPvkbGuIRAgN-6" value="" style="edgeStyle=orthogonalEdgeStyle;rounded=0;orthogonalLoop=1;jettySize=auto;html=1;fontSize=16;strokeWidth=3;fontStyle=1;strokeColor=#999999;" parent="T8ddxWDzVPvkbGuIRAgN-1" source="T8ddxWDzVPvkbGuIRAgN-7" edge="1">
                    <mxGeometry relative="1" as="geometry">
                        <mxPoint x="210" y="260" as="targetPoint"/>
                    </mxGeometry>
                </mxCell>
                <mxCell id="T8ddxWDzVPvkbGuIRAgN-7" value="K&lt;sub style=&quot;font-size: 16px;&quot;&gt;i&lt;/sub&gt;" style="rounded=0;whiteSpace=wrap;html=1;fontSize=16;strokeWidth=3;fontStyle=1;strokeColor=#999999;" parent="T8ddxWDzVPvkbGuIRAgN-1" vertex="1">
                    <mxGeometry x="140" y="240" width="40" height="40" as="geometry"/>
                </mxCell>
                <mxCell id="T8ddxWDzVPvkbGuIRAgN-8" value="" style="group;fontSize=16;strokeWidth=3;fontStyle=1" parent="T8ddxWDzVPvkbGuIRAgN-1" vertex="1" connectable="0">
                    <mxGeometry x="210" y="160" width="40" height="40" as="geometry"/>
                </mxCell>
                <mxCell id="T8ddxWDzVPvkbGuIRAgN-9" value="" style="rounded=0;whiteSpace=wrap;html=1;strokeWidth=3;strokeColor=#FF3333;fontSize=16;fontStyle=1" parent="T8ddxWDzVPvkbGuIRAgN-8" vertex="1">
                    <mxGeometry width="40" height="40" as="geometry"/>
                </mxCell>
                <mxCell id="T8ddxWDzVPvkbGuIRAgN-10" value="" style="endArrow=none;html=1;exitX=0;exitY=0.5;exitDx=0;exitDy=0;entryX=1;entryY=0.5;entryDx=0;entryDy=0;strokeWidth=3;strokeColor=#FF3333;fontSize=16;fontStyle=1" parent="T8ddxWDzVPvkbGuIRAgN-8" source="T8ddxWDzVPvkbGuIRAgN-9" target="T8ddxWDzVPvkbGuIRAgN-9" edge="1">
                    <mxGeometry width="50" height="50" relative="1" as="geometry">
                        <mxPoint x="170" y="40" as="sourcePoint"/>
                        <mxPoint x="220" y="-10" as="targetPoint"/>
                    </mxGeometry>
                </mxCell>
                <mxCell id="T8ddxWDzVPvkbGuIRAgN-11" value="" style="endArrow=none;html=1;exitX=0.5;exitY=0;exitDx=0;exitDy=0;entryX=0.5;entryY=1;entryDx=0;entryDy=0;strokeWidth=3;strokeColor=#FF3333;fontSize=16;fontStyle=1" parent="T8ddxWDzVPvkbGuIRAgN-8" source="T8ddxWDzVPvkbGuIRAgN-9" target="T8ddxWDzVPvkbGuIRAgN-9" edge="1">
                    <mxGeometry width="50" height="50" relative="1" as="geometry">
                        <mxPoint x="10" y="30" as="sourcePoint"/>
                        <mxPoint x="50" y="30" as="targetPoint"/>
                    </mxGeometry>
                </mxCell>
                <mxCell id="T8ddxWDzVPvkbGuIRAgN-12" value="" style="group;fontSize=16;strokeWidth=3;fontStyle=1" parent="T8ddxWDzVPvkbGuIRAgN-1" vertex="1" connectable="0">
                    <mxGeometry x="210" y="240" width="40" height="40" as="geometry"/>
                </mxCell>
                <mxCell id="T8ddxWDzVPvkbGuIRAgN-13" value="" style="rounded=0;whiteSpace=wrap;html=1;strokeWidth=3;strokeColor=#FF3333;fontSize=16;fontStyle=1" parent="T8ddxWDzVPvkbGuIRAgN-12" vertex="1">
                    <mxGeometry width="40" height="40" as="geometry"/>
                </mxCell>
                <mxCell id="T8ddxWDzVPvkbGuIRAgN-14" value="" style="endArrow=none;html=1;exitX=0;exitY=0.5;exitDx=0;exitDy=0;entryX=1;entryY=0.5;entryDx=0;entryDy=0;strokeWidth=3;strokeColor=#FF3333;fontSize=16;fontStyle=1" parent="T8ddxWDzVPvkbGuIRAgN-12" source="T8ddxWDzVPvkbGuIRAgN-13" target="T8ddxWDzVPvkbGuIRAgN-13" edge="1">
                    <mxGeometry width="50" height="50" relative="1" as="geometry">
                        <mxPoint x="170" y="40" as="sourcePoint"/>
                        <mxPoint x="220" y="-10" as="targetPoint"/>
                    </mxGeometry>
                </mxCell>
                <mxCell id="T8ddxWDzVPvkbGuIRAgN-15" value="" style="endArrow=none;html=1;exitX=0.5;exitY=0;exitDx=0;exitDy=0;entryX=0.5;entryY=1;entryDx=0;entryDy=0;strokeWidth=3;strokeColor=#FF3333;fontSize=16;fontStyle=1" parent="T8ddxWDzVPvkbGuIRAgN-12" source="T8ddxWDzVPvkbGuIRAgN-13" target="T8ddxWDzVPvkbGuIRAgN-13" edge="1">
                    <mxGeometry width="50" height="50" relative="1" as="geometry">
                        <mxPoint x="10" y="30" as="sourcePoint"/>
                        <mxPoint x="50" y="30" as="targetPoint"/>
                    </mxGeometry>
                </mxCell>
                <mxCell id="T8ddxWDzVPvkbGuIRAgN-16" style="edgeStyle=orthogonalEdgeStyle;rounded=0;orthogonalLoop=1;jettySize=auto;html=1;strokeWidth=3;fontSize=16;fontStyle=1;strokeColor=#999999;" parent="T8ddxWDzVPvkbGuIRAgN-1" source="T8ddxWDzVPvkbGuIRAgN-17" edge="1">
                    <mxGeometry relative="1" as="geometry">
                        <mxPoint x="250" y="180" as="targetPoint"/>
                        <Array as="points">
                            <mxPoint x="250" y="180"/>
                            <mxPoint x="250" y="180"/>
                        </Array>
                    </mxGeometry>
                </mxCell>
                <mxCell id="T8ddxWDzVPvkbGuIRAgN-17" value="F" style="rounded=0;whiteSpace=wrap;html=1;fontSize=16;strokeWidth=3;fontStyle=1;strokeColor=#999999;" parent="T8ddxWDzVPvkbGuIRAgN-1" vertex="1">
                    <mxGeometry x="280" y="160" width="40" height="40" as="geometry"/>
                </mxCell>
                <mxCell id="T8ddxWDzVPvkbGuIRAgN-18" value="&amp;gt;&amp;gt;&amp;gt;" style="rounded=0;whiteSpace=wrap;html=1;fontSize=16;strokeWidth=3;fontStyle=1;strokeColor=#999999;" parent="T8ddxWDzVPvkbGuIRAgN-1" vertex="1">
                    <mxGeometry x="210" y="320" width="40" height="40" as="geometry"/>
                </mxCell>
                <mxCell id="T8ddxWDzVPvkbGuIRAgN-19" style="edgeStyle=orthogonalEdgeStyle;rounded=0;orthogonalLoop=1;jettySize=auto;html=1;entryX=0.5;entryY=0;entryDx=0;entryDy=0;fontSize=16;fontColor=#3333FF;strokeWidth=3;fontStyle=1;strokeColor=#999999;" parent="T8ddxWDzVPvkbGuIRAgN-1" source="T8ddxWDzVPvkbGuIRAgN-13" target="T8ddxWDzVPvkbGuIRAgN-18" edge="1">
                    <mxGeometry relative="1" as="geometry"/>
                </mxCell>
                <mxCell id="T8ddxWDzVPvkbGuIRAgN-20" value="" style="endArrow=classic;html=1;fontSize=16;fontColor=#3333FF;strokeWidth=3;entryX=0.5;entryY=0;entryDx=0;entryDy=0;exitX=0.5;exitY=1;exitDx=0;exitDy=0;rounded=0;fontStyle=1;strokeColor=#999999;" parent="T8ddxWDzVPvkbGuIRAgN-1" source="T8ddxWDzVPvkbGuIRAgN-18" edge="1">
                    <mxGeometry width="50" height="50" relative="1" as="geometry">
                        <mxPoint x="360" y="200" as="sourcePoint"/>
                        <mxPoint x="320" y="440" as="targetPoint"/>
                        <Array as="points">
                            <mxPoint x="230" y="380"/>
                            <mxPoint x="320" y="380"/>
                        </Array>
                    </mxGeometry>
                </mxCell>
                <mxCell id="T8ddxWDzVPvkbGuIRAgN-21" value="" style="group" parent="T8ddxWDzVPvkbGuIRAgN-1" vertex="1" connectable="0">
                    <mxGeometry x="200" y="80" width="320" height="40" as="geometry"/>
                </mxCell>
                <mxCell id="T8ddxWDzVPvkbGuIRAgN-22" value="A" style="rounded=0;whiteSpace=wrap;html=1;fontSize=16;strokeWidth=3;fontStyle=1;strokeColor=#999999;" parent="T8ddxWDzVPvkbGuIRAgN-21" vertex="1">
                    <mxGeometry width="80" height="40" as="geometry"/>
                </mxCell>
                <mxCell id="T8ddxWDzVPvkbGuIRAgN-23" value="B" style="rounded=0;whiteSpace=wrap;html=1;fontSize=16;strokeWidth=3;fontStyle=1;strokeColor=#999999;" parent="T8ddxWDzVPvkbGuIRAgN-21" vertex="1">
                    <mxGeometry x="80" width="80" height="40" as="geometry"/>
                </mxCell>
                <mxCell id="T8ddxWDzVPvkbGuIRAgN-24" value="C" style="rounded=0;whiteSpace=wrap;html=1;fontSize=16;strokeWidth=3;fontStyle=1;strokeColor=#999999;" parent="T8ddxWDzVPvkbGuIRAgN-21" vertex="1">
                    <mxGeometry x="160" width="80" height="40" as="geometry"/>
                </mxCell>
                <mxCell id="T8ddxWDzVPvkbGuIRAgN-25" value="D" style="rounded=0;whiteSpace=wrap;html=1;fontSize=16;strokeWidth=3;fontStyle=1;strokeColor=#999999;" parent="T8ddxWDzVPvkbGuIRAgN-21" vertex="1">
                    <mxGeometry x="240" width="80" height="40" as="geometry"/>
                </mxCell>
                <mxCell id="T8ddxWDzVPvkbGuIRAgN-26" value="" style="group" parent="T8ddxWDzVPvkbGuIRAgN-1" vertex="1" connectable="0">
                    <mxGeometry x="200" y="440" width="320" height="40" as="geometry"/>
                </mxCell>
                <mxCell id="T8ddxWDzVPvkbGuIRAgN-27" value="A" style="rounded=0;whiteSpace=wrap;html=1;fontSize=16;strokeWidth=3;fontStyle=1;strokeColor=#999999;" parent="T8ddxWDzVPvkbGuIRAgN-26" vertex="1">
                    <mxGeometry width="80" height="40" as="geometry"/>
                </mxCell>
                <mxCell id="T8ddxWDzVPvkbGuIRAgN-28" value="B" style="rounded=0;whiteSpace=wrap;html=1;fontSize=16;strokeWidth=3;fontStyle=1;strokeColor=#999999;" parent="T8ddxWDzVPvkbGuIRAgN-26" vertex="1">
                    <mxGeometry x="80" width="80" height="40" as="geometry"/>
                </mxCell>
                <mxCell id="T8ddxWDzVPvkbGuIRAgN-29" value="C" style="rounded=0;whiteSpace=wrap;html=1;fontSize=16;strokeWidth=3;fontStyle=1;strokeColor=#999999;" parent="T8ddxWDzVPvkbGuIRAgN-26" vertex="1">
                    <mxGeometry x="160" width="80" height="40" as="geometry"/>
                </mxCell>
                <mxCell id="T8ddxWDzVPvkbGuIRAgN-30" value="D" style="rounded=0;whiteSpace=wrap;html=1;fontSize=16;strokeWidth=3;fontStyle=1;strokeColor=#999999;" parent="T8ddxWDzVPvkbGuIRAgN-26" vertex="1">
                    <mxGeometry x="240" width="80" height="40" as="geometry"/>
                </mxCell>
                <mxCell id="T8ddxWDzVPvkbGuIRAgN-31" value="" style="group" parent="T8ddxWDzVPvkbGuIRAgN-1" vertex="1" connectable="0">
                    <mxGeometry x="240" y="400" width="240" as="geometry"/>
                </mxCell>
                <mxCell id="T8ddxWDzVPvkbGuIRAgN-32" style="edgeStyle=orthogonalEdgeStyle;rounded=0;orthogonalLoop=1;jettySize=auto;html=1;exitX=0.5;exitY=1;exitDx=0;exitDy=0;entryX=1;entryY=0.25;entryDx=0;entryDy=0;strokeWidth=3;fontSize=16;strokeColor=#A680B8;fontStyle=1" parent="T8ddxWDzVPvkbGuIRAgN-31" source="T8ddxWDzVPvkbGuIRAgN-25" target="T8ddxWDzVPvkbGuIRAgN-17" edge="1">
                    <mxGeometry relative="1" as="geometry"/>
                </mxCell>
                <mxCell id="T8ddxWDzVPvkbGuIRAgN-33" value="" style="endArrow=classic;html=1;fontSize=16;fontColor=#3333FF;strokeWidth=3;strokeColor=#A680B8;rounded=0;fontStyle=1" parent="T8ddxWDzVPvkbGuIRAgN-31" edge="1">
                    <mxGeometry width="50" height="50" relative="1" as="geometry">
                        <mxPoint x="240" y="-230" as="sourcePoint"/>
                        <mxPoint y="37" as="targetPoint"/>
                        <Array as="points">
                            <mxPoint x="240"/>
                            <mxPoint/>
                        </Array>
                    </mxGeometry>
                </mxCell>
                <mxCell id="T8ddxWDzVPvkbGuIRAgN-34" value="" style="group" parent="T8ddxWDzVPvkbGuIRAgN-1" vertex="1" connectable="0">
                    <mxGeometry x="400" y="180" width="100" height="140" as="geometry"/>
                </mxCell>
                <mxCell id="T8ddxWDzVPvkbGuIRAgN-35" style="edgeStyle=orthogonalEdgeStyle;rounded=0;orthogonalLoop=1;jettySize=auto;html=1;entryX=1;entryY=0.5;entryDx=0;entryDy=0;strokeWidth=3;fontSize=16;strokeColor=#FFD966;fontStyle=1" parent="T8ddxWDzVPvkbGuIRAgN-34" source="T8ddxWDzVPvkbGuIRAgN-24" target="T8ddxWDzVPvkbGuIRAgN-17" edge="1">
                    <mxGeometry relative="1" as="geometry">
                        <Array as="points">
                            <mxPoint/>
                        </Array>
                    </mxGeometry>
                </mxCell>
                <mxCell id="T8ddxWDzVPvkbGuIRAgN-36" value="" style="endArrow=classic;html=1;fontSize=16;fontColor=#3333FF;strokeWidth=3;strokeColor=#FFD966;entryX=0.75;entryY=0;entryDx=0;entryDy=0;rounded=0;fontStyle=1" parent="T8ddxWDzVPvkbGuIRAgN-34" target="T8ddxWDzVPvkbGuIRAgN-30" edge="1">
                    <mxGeometry width="50" height="50" relative="1" as="geometry">
                        <mxPoint as="sourcePoint"/>
                        <mxPoint x="130" y="260" as="targetPoint"/>
                        <Array as="points">
                            <mxPoint y="140"/>
                            <mxPoint x="100" y="140"/>
                        </Array>
                    </mxGeometry>
                </mxCell>
                <mxCell id="T8ddxWDzVPvkbGuIRAgN-37" value="" style="group" parent="T8ddxWDzVPvkbGuIRAgN-1" vertex="1" connectable="0">
                    <mxGeometry x="350" y="190" width="60" height="150" as="geometry"/>
                </mxCell>
                <mxCell id="T8ddxWDzVPvkbGuIRAgN-38" style="edgeStyle=orthogonalEdgeStyle;rounded=0;orthogonalLoop=1;jettySize=auto;html=1;entryX=1;entryY=0.75;entryDx=0;entryDy=0;strokeWidth=3;fontSize=16;strokeColor=#67AB9F;fontStyle=1" parent="T8ddxWDzVPvkbGuIRAgN-37" source="T8ddxWDzVPvkbGuIRAgN-23" target="T8ddxWDzVPvkbGuIRAgN-17" edge="1">
                    <mxGeometry relative="1" as="geometry">
                        <Array as="points">
                            <mxPoint/>
                        </Array>
                    </mxGeometry>
                </mxCell>
                <mxCell id="T8ddxWDzVPvkbGuIRAgN-39" value="" style="endArrow=classic;html=1;fontSize=16;fontColor=#3333FF;strokeWidth=3;entryX=0.25;entryY=0;entryDx=0;entryDy=0;rounded=0;strokeColor=#67AB9F;fontStyle=1" parent="T8ddxWDzVPvkbGuIRAgN-37" edge="1">
                    <mxGeometry width="50" height="50" relative="1" as="geometry">
                        <mxPoint as="sourcePoint"/>
                        <mxPoint x="60" y="250" as="targetPoint"/>
                        <Array as="points">
                            <mxPoint y="150"/>
                            <mxPoint x="60" y="150"/>
                        </Array>
                    </mxGeometry>
                </mxCell>
                <mxCell id="T8ddxWDzVPvkbGuIRAgN-40" value="" style="endArrow=classic;html=1;fontSize=16;fontColor=#3333FF;strokeWidth=3;entryX=1;entryY=0.5;entryDx=0;entryDy=0;rounded=0;strokeColor=#67AB9F;fontStyle=1" parent="T8ddxWDzVPvkbGuIRAgN-37" target="T8ddxWDzVPvkbGuIRAgN-18" edge="1">
                    <mxGeometry width="50" height="50" relative="1" as="geometry">
                        <mxPoint as="sourcePoint"/>
                        <mxPoint x="20" y="90" as="targetPoint"/>
                        <Array as="points">
                            <mxPoint y="150"/>
                        </Array>
                    </mxGeometry>
                </mxCell>
            </root>
        </mxGraphModel>
    </diagram>
    <diagram id="niaexS_6S1hR7J3bZ66Z" name="Feistel">
        &#xa;
        <mxGraphModel dx="561" dy="437" grid="1" gridSize="10" guides="1" tooltips="1" connect="1" arrows="1" fold="1" page="1" pageScale="1" pageWidth="827" pageHeight="1169" math="0" shadow="0">
            &#xa;
            <root>
                &#xa;
                <mxCell id="0"/>
                &#xa;
                <mxCell id="1" parent="0"/>
                &#xa;
                <mxCell id="57" style="edgeStyle=orthogonalEdgeStyle;rounded=0;orthogonalLoop=1;jettySize=auto;html=1;strokeColor=#FFFFFF;strokeWidth=2;entryX=1;entryY=0.5;entryDx=0;entryDy=0;" parent="1" source="54" target="45" edge="1">
                    &#xa;
                    <mxGeometry relative="1" as="geometry">
                        &#xa;
                        <mxPoint x="230" y="160" as="targetPoint"/>
                        &#xa;
                        <Array as="points">
                            &#xa;
                            <mxPoint x="270" y="170"/>
                            &#xa;
                            <mxPoint x="270" y="170"/>
                            &#xa;
                        </Array>
                        &#xa;
                    </mxGeometry>
                    &#xa;
                </mxCell>
                &#xa;
                <mxCell id="63" style="edgeStyle=orthogonalEdgeStyle;rounded=0;orthogonalLoop=1;jettySize=auto;html=1;strokeColor=#FFFFFF;strokeWidth=2;entryX=1;entryY=0.5;entryDx=0;entryDy=0;" parent="1" source="64" target="67" edge="1">
                    &#xa;
                    <mxGeometry relative="1" as="geometry">
                        &#xa;
                        <mxPoint x="230" y="255" as="targetPoint"/>
                        &#xa;
                        <Array as="points"/>
                        &#xa;
                    </mxGeometry>
                    &#xa;
                </mxCell>
                &#xa;
                <mxCell id="66" value="" style="group" parent="1" vertex="1" connectable="0">
                    &#xa;
                    <mxGeometry x="230" y="270" width="20" height="20" as="geometry"/>
                    &#xa;
                </mxCell>
                &#xa;
                <mxCell id="67" value="" style="ellipse;whiteSpace=wrap;html=1;aspect=fixed;strokeColor=#FF3333;strokeWidth=2;" parent="66" vertex="1">
                    &#xa;
                    <mxGeometry width="20" height="20" as="geometry"/>
                    &#xa;
                </mxCell>
                &#xa;
                <mxCell id="68" value="" style="endArrow=none;html=1;exitX=0.5;exitY=0;exitDx=0;exitDy=0;entryX=0.5;entryY=1;entryDx=0;entryDy=0;strokeColor=#FF3333;strokeWidth=2;" parent="66" source="67" target="67" edge="1">
                    &#xa;
                    <mxGeometry width="50" height="50" relative="1" as="geometry">
                        &#xa;
                        <mxPoint x="5" y="15" as="sourcePoint"/>
                        &#xa;
                        <mxPoint x="25" y="15" as="targetPoint"/>
                        &#xa;
                    </mxGeometry>
                    &#xa;
                </mxCell>
                &#xa;
                <mxCell id="69" value="" style="endArrow=none;html=1;exitX=0;exitY=0.5;exitDx=0;exitDy=0;entryX=1;entryY=0.5;entryDx=0;entryDy=0;strokeColor=#FF3333;strokeWidth=2;" parent="66" source="67" target="67" edge="1">
                    &#xa;
                    <mxGeometry width="50" height="50" relative="1" as="geometry">
                        &#xa;
                        <mxPoint x="120" y="100" as="sourcePoint"/>
                        &#xa;
                        <mxPoint x="120" y="120" as="targetPoint"/>
                        &#xa;
                    </mxGeometry>
                    &#xa;
                </mxCell>
                &#xa;
                <mxCell id="72" value="" style="endArrow=classic;html=1;strokeColor=#FFFFFF;strokeWidth=2;entryX=0.5;entryY=0;entryDx=0;entryDy=0;rounded=0;" parent="1" target="67" edge="1">
                    &#xa;
                    <mxGeometry width="50" height="50" relative="1" as="geometry">
                        &#xa;
                        <mxPoint x="360" y="170" as="sourcePoint"/>
                        &#xa;
                        <mxPoint x="430" y="180" as="targetPoint"/>
                        &#xa;
                        <Array as="points">
                            &#xa;
                            <mxPoint x="360" y="200"/>
                            &#xa;
                            <mxPoint x="240" y="220"/>
                            &#xa;
                        </Array>
                        &#xa;
                    </mxGeometry>
                    &#xa;
                </mxCell>
                &#xa;
                <mxCell id="73" value="" style="endArrow=classic;html=1;strokeColor=#FFFFFF;strokeWidth=2;entryX=1;entryY=0.5;entryDx=0;entryDy=0;rounded=0;exitX=0.5;exitY=1;exitDx=0;exitDy=0;" parent="1" source="45" target="64" edge="1">
                    &#xa;
                    <mxGeometry width="50" height="50" relative="1" as="geometry">
                        &#xa;
                        <mxPoint x="220" y="180" as="sourcePoint"/>
                        &#xa;
                        <mxPoint x="380" y="290" as="targetPoint"/>
                        &#xa;
                        <Array as="points">
                            &#xa;
                            <mxPoint x="240" y="200"/>
                            &#xa;
                            <mxPoint x="360" y="220"/>
                            &#xa;
                            <mxPoint x="360" y="280"/>
                            &#xa;
                        </Array>
                        &#xa;
                    </mxGeometry>
                    &#xa;
                </mxCell>
                &#xa;
                <mxCell id="45" value="" style="ellipse;whiteSpace=wrap;html=1;aspect=fixed;strokeColor=#FF3333;strokeWidth=2;" parent="1" vertex="1">
                    &#xa;
                    <mxGeometry x="230" y="160" width="20" height="20" as="geometry"/>
                    &#xa;
                </mxCell>
                &#xa;
                <mxCell id="49" value="" style="endArrow=none;html=1;exitX=0.5;exitY=0;exitDx=0;exitDy=0;entryX=0.5;entryY=1;entryDx=0;entryDy=0;strokeColor=#FF3333;strokeWidth=2;" parent="1" source="45" target="45" edge="1">
                    &#xa;
                    <mxGeometry width="50" height="50" relative="1" as="geometry">
                        &#xa;
                        <mxPoint x="215" y="165" as="sourcePoint"/>
                        &#xa;
                        <mxPoint x="235" y="165" as="targetPoint"/>
                        &#xa;
                    </mxGeometry>
                    &#xa;
                </mxCell>
                &#xa;
                <mxCell id="58" value="" style="endArrow=none;html=1;exitX=0;exitY=0.5;exitDx=0;exitDy=0;entryX=1;entryY=0.5;entryDx=0;entryDy=0;strokeColor=#FF3333;strokeWidth=2;" parent="1" source="45" target="45" edge="1">
                    &#xa;
                    <mxGeometry width="50" height="50" relative="1" as="geometry">
                        &#xa;
                        <mxPoint x="330" y="250" as="sourcePoint"/>
                        &#xa;
                        <mxPoint x="330" y="270" as="targetPoint"/>
                        &#xa;
                    </mxGeometry>
                    &#xa;
                </mxCell>
                &#xa;
                <mxCell id="76" style="edgeStyle=orthogonalEdgeStyle;rounded=0;orthogonalLoop=1;jettySize=auto;html=1;entryX=0.5;entryY=0;entryDx=0;entryDy=0;strokeColor=#FFFFFF;strokeWidth=2;" parent="1" source="75" target="54" edge="1">
                    &#xa;
                    <mxGeometry relative="1" as="geometry">
                        &#xa;
                        <Array as="points">
                            &#xa;
                            <mxPoint x="300" y="160"/>
                            &#xa;
                            <mxPoint x="300" y="160"/>
                            &#xa;
                        </Array>
                        &#xa;
                    </mxGeometry>
                    &#xa;
                </mxCell>
                &#xa;
                <mxCell id="79" style="edgeStyle=orthogonalEdgeStyle;rounded=0;orthogonalLoop=1;jettySize=auto;html=1;entryX=0.5;entryY=0;entryDx=0;entryDy=0;strokeColor=#FFFFFF;strokeWidth=2;" parent="1" source="80" edge="1">
                    &#xa;
                    <mxGeometry relative="1" as="geometry">
                        &#xa;
                        <mxPoint x="300" y="270" as="targetPoint"/>
                        &#xa;
                        <Array as="points">
                            &#xa;
                            <mxPoint x="300" y="270"/>
                            &#xa;
                            <mxPoint x="300" y="270"/>
                            &#xa;
                        </Array>
                        &#xa;
                    </mxGeometry>
                    &#xa;
                </mxCell>
                &#xa;
                <mxCell id="81" value="" style="endArrow=classic;html=1;strokeColor=#FFFFFF;strokeWidth=2;entryX=1;entryY=0.5;entryDx=0;entryDy=0;rounded=0;exitX=0.6;exitY=1;exitDx=0;exitDy=0;exitPerimeter=0;" parent="1" source="25" target="54" edge="1">
                    &#xa;
                    <mxGeometry width="50" height="50" relative="1" as="geometry">
                        &#xa;
                        <mxPoint x="360" y="120" as="sourcePoint"/>
                        &#xa;
                        <mxPoint x="420" y="140" as="targetPoint"/>
                        &#xa;
                        <Array as="points">
                            &#xa;
                            <mxPoint x="360" y="170"/>
                            &#xa;
                        </Array>
                        &#xa;
                    </mxGeometry>
                    &#xa;
                </mxCell>
                &#xa;
                <mxCell id="82" value="" style="endArrow=classic;html=1;strokeColor=#FFFFFF;strokeWidth=2;rounded=0;exitX=0.4;exitY=1;exitDx=0;exitDy=0;exitPerimeter=0;" parent="1" source="22" edge="1">
                    &#xa;
                    <mxGeometry width="50" height="50" relative="1" as="geometry">
                        &#xa;
                        <mxPoint x="220" y="110" as="sourcePoint"/>
                        &#xa;
                        <mxPoint x="240" y="160" as="targetPoint"/>
                        &#xa;
                        <Array as="points"/>
                        &#xa;
                    </mxGeometry>
                    &#xa;
                </mxCell>
                &#xa;
                <mxCell id="25" value="R" style="rounded=0;whiteSpace=wrap;html=1;fontSize=16;strokeWidth=3;fontStyle=1;strokeColor=#999999;" parent="1" vertex="1">
                    &#xa;
                    <mxGeometry x="300" y="80" width="100" height="30" as="geometry"/>
                    &#xa;
                </mxCell>
                &#xa;
                <mxCell id="22" value="L" style="rounded=0;whiteSpace=wrap;html=1;fontSize=16;strokeWidth=3;fontStyle=1;strokeColor=#999999;" parent="1" vertex="1">
                    &#xa;
                    <mxGeometry x="200" y="80" width="100" height="30" as="geometry"/>
                    &#xa;
                </mxCell>
                &#xa;
                <mxCell id="54" value="F" style="rounded=0;whiteSpace=wrap;html=1;fontSize=16;strokeWidth=3;fontStyle=1;strokeColor=#999999;" parent="1" vertex="1">
                    &#xa;
                    <mxGeometry x="280" y="160" width="40" height="20" as="geometry"/>
                    &#xa;
                </mxCell>
                &#xa;
                <mxCell id="80" value="k&lt;sub&gt;2&lt;/sub&gt;" style="rounded=0;whiteSpace=wrap;html=1;fontSize=16;strokeWidth=3;fontStyle=1;strokeColor=#999999;" parent="1" vertex="1">
                    &#xa;
                    <mxGeometry x="280" y="230" width="40" height="20" as="geometry"/>
                    &#xa;
                </mxCell>
                &#xa;
                <mxCell id="64" value="F" style="rounded=0;whiteSpace=wrap;html=1;fontSize=16;strokeWidth=3;fontStyle=1;strokeColor=#999999;" parent="1" vertex="1">
                    &#xa;
                    <mxGeometry x="280" y="270" width="40" height="20" as="geometry"/>
                    &#xa;
                </mxCell>
                &#xa;
                <mxCell id="75" value="k&lt;sub&gt;1&lt;/sub&gt;" style="rounded=0;whiteSpace=wrap;html=1;fontSize=16;strokeWidth=3;fontStyle=1;strokeColor=#999999;" parent="1" vertex="1">
                    &#xa;
                    <mxGeometry x="280" y="120" width="40" height="20" as="geometry"/>
                    &#xa;
                </mxCell>
                &#xa;
                <mxCell id="94" value="" style="endArrow=none;html=1;strokeColor=#FFFFFF;strokeWidth=2;rounded=0;endFill=0;exitX=0.5;exitY=1;exitDx=0;exitDy=0;" parent="1" source="67" edge="1">
                    &#xa;
                    <mxGeometry width="50" height="50" relative="1" as="geometry">
                        &#xa;
                        <mxPoint x="220" y="290" as="sourcePoint"/>
                        &#xa;
                        <mxPoint x="360" y="340" as="targetPoint"/>
                        &#xa;
                        <Array as="points">
                            &#xa;
                            <mxPoint x="240" y="310"/>
                            &#xa;
                            <mxPoint x="360" y="330"/>
                            &#xa;
                        </Array>
                        &#xa;
                    </mxGeometry>
                    &#xa;
                </mxCell>
                &#xa;
                <mxCell id="95" value="" style="endArrow=none;html=1;strokeColor=#FFFFFF;strokeWidth=2;rounded=0;endFill=0;" parent="1" edge="1">
                    &#xa;
                    <mxGeometry width="50" height="50" relative="1" as="geometry">
                        &#xa;
                        <mxPoint x="360" y="280" as="sourcePoint"/>
                        &#xa;
                        <mxPoint x="240" y="340" as="targetPoint"/>
                        &#xa;
                        <Array as="points">
                            &#xa;
                            <mxPoint x="360" y="310"/>
                            &#xa;
                            <mxPoint x="240" y="330"/>
                            &#xa;
                        </Array>
                        &#xa;
                    </mxGeometry>
                    &#xa;
                </mxCell>
                &#xa;
                <mxCell id="96" style="edgeStyle=orthogonalEdgeStyle;rounded=0;orthogonalLoop=1;jettySize=auto;html=1;strokeColor=#FFFFFF;strokeWidth=2;entryX=1;entryY=0.5;entryDx=0;entryDy=0;" parent="1" source="103" target="98" edge="1">
                    &#xa;
                    <mxGeometry relative="1" as="geometry">
                        &#xa;
                        <mxPoint x="260" y="410" as="targetPoint"/>
                        &#xa;
                        <Array as="points">
                            &#xa;
                            <mxPoint x="270" y="410"/>
                            &#xa;
                            <mxPoint x="270" y="410"/>
                            &#xa;
                        </Array>
                        &#xa;
                    </mxGeometry>
                    &#xa;
                </mxCell>
                &#xa;
                <mxCell id="97" value="" style="group" parent="1" vertex="1" connectable="0">
                    &#xa;
                    <mxGeometry x="230" y="400" width="20" height="20" as="geometry"/>
                    &#xa;
                </mxCell>
                &#xa;
                <mxCell id="98" value="" style="ellipse;whiteSpace=wrap;html=1;aspect=fixed;strokeColor=#FF3333;strokeWidth=2;" parent="97" vertex="1">
                    &#xa;
                    <mxGeometry width="20" height="20" as="geometry"/>
                    &#xa;
                </mxCell>
                &#xa;
                <mxCell id="99" value="" style="endArrow=none;html=1;exitX=0.5;exitY=0;exitDx=0;exitDy=0;entryX=0.5;entryY=1;entryDx=0;entryDy=0;strokeColor=#FF3333;strokeWidth=2;" parent="97" source="98" target="98" edge="1">
                    &#xa;
                    <mxGeometry width="50" height="50" relative="1" as="geometry">
                        &#xa;
                        <mxPoint x="5" y="15" as="sourcePoint"/>
                        &#xa;
                        <mxPoint x="25" y="15" as="targetPoint"/>
                        &#xa;
                    </mxGeometry>
                    &#xa;
                </mxCell>
                &#xa;
                <mxCell id="100" value="" style="endArrow=none;html=1;exitX=0;exitY=0.5;exitDx=0;exitDy=0;entryX=1;entryY=0.5;entryDx=0;entryDy=0;strokeColor=#FF3333;strokeWidth=2;" parent="97" source="98" target="98" edge="1">
                    &#xa;
                    <mxGeometry width="50" height="50" relative="1" as="geometry">
                        &#xa;
                        <mxPoint x="120" y="100" as="sourcePoint"/>
                        &#xa;
                        <mxPoint x="120" y="120" as="targetPoint"/>
                        &#xa;
                    </mxGeometry>
                    &#xa;
                </mxCell>
                &#xa;
                <mxCell id="101" style="edgeStyle=orthogonalEdgeStyle;rounded=0;orthogonalLoop=1;jettySize=auto;html=1;entryX=0.5;entryY=0;entryDx=0;entryDy=0;strokeColor=#FFFFFF;strokeWidth=2;" parent="1" source="102" edge="1">
                    &#xa;
                    <mxGeometry relative="1" as="geometry">
                        &#xa;
                        <mxPoint x="300" y="400" as="targetPoint"/>
                        &#xa;
                        <Array as="points">
                            &#xa;
                            <mxPoint x="300" y="400"/>
                            &#xa;
                            <mxPoint x="300" y="400"/>
                            &#xa;
                        </Array>
                        &#xa;
                    </mxGeometry>
                    &#xa;
                </mxCell>
                &#xa;
                <mxCell id="102" value="k&lt;sub&gt;16&lt;/sub&gt;" style="rounded=0;whiteSpace=wrap;html=1;fontSize=16;strokeWidth=3;fontStyle=1;strokeColor=#999999;" parent="1" vertex="1">
                    &#xa;
                    <mxGeometry x="280" y="360" width="40" height="20" as="geometry"/>
                    &#xa;
                </mxCell>
                &#xa;
                <mxCell id="103" value="F" style="rounded=0;whiteSpace=wrap;html=1;fontSize=16;strokeWidth=3;fontStyle=1;strokeColor=#999999;" parent="1" vertex="1">
                    &#xa;
                    <mxGeometry x="280" y="400" width="40" height="20" as="geometry"/>
                    &#xa;
                </mxCell>
                &#xa;
                <mxCell id="106" value="" style="endArrow=none;html=1;strokeColor=#FFFFFF;strokeWidth=2;dashed=1;" parent="1" edge="1">
                    &#xa;
                    <mxGeometry width="50" height="50" relative="1" as="geometry">
                        &#xa;
                        <mxPoint x="240" y="390" as="sourcePoint"/>
                        &#xa;
                        <mxPoint x="240" y="340" as="targetPoint"/>
                        &#xa;
                    </mxGeometry>
                    &#xa;
                </mxCell>
                &#xa;
                <mxCell id="107" value="" style="endArrow=none;html=1;strokeColor=#FFFFFF;strokeWidth=2;dashed=1;" parent="1" edge="1">
                    &#xa;
                    <mxGeometry width="50" height="50" relative="1" as="geometry">
                        &#xa;
                        <mxPoint x="360" y="390" as="sourcePoint"/>
                        &#xa;
                        <mxPoint x="360" y="340" as="targetPoint"/>
                        &#xa;
                    </mxGeometry>
                    &#xa;
                </mxCell>
                &#xa;
                <mxCell id="108" value="" style="endArrow=classic;html=1;strokeColor=#FFFFFF;strokeWidth=2;" parent="1" edge="1">
                    &#xa;
                    <mxGeometry width="50" height="50" relative="1" as="geometry">
                        &#xa;
                        <mxPoint x="240" y="390" as="sourcePoint"/>
                        &#xa;
                        <mxPoint x="240" y="400" as="targetPoint"/>
                        &#xa;
                    </mxGeometry>
                    &#xa;
                </mxCell>
                &#xa;
                <mxCell id="110" value="" style="endArrow=classic;html=1;strokeColor=#FFFFFF;strokeWidth=2;entryX=1;entryY=0.5;entryDx=0;entryDy=0;rounded=0;" parent="1" target="103" edge="1">
                    &#xa;
                    <mxGeometry width="50" height="50" relative="1" as="geometry">
                        &#xa;
                        <mxPoint x="360" y="390" as="sourcePoint"/>
                        &#xa;
                        <mxPoint x="380" y="400" as="targetPoint"/>
                        &#xa;
                        <Array as="points">
                            &#xa;
                            <mxPoint x="360" y="400"/>
                            &#xa;
                            <mxPoint x="360" y="410"/>
                            &#xa;
                        </Array>
                        &#xa;
                    </mxGeometry>
                    &#xa;
                </mxCell>
                &#xa;
                <mxCell id="112" style="edgeStyle=orthogonalEdgeStyle;rounded=0;orthogonalLoop=1;jettySize=auto;html=1;exitX=0.5;exitY=1;exitDx=0;exitDy=0;endArrow=classic;endFill=1;strokeColor=#FFFFFF;strokeWidth=2;" parent="1" source="98" edge="1">
                    &#xa;
                    <mxGeometry relative="1" as="geometry">
                        &#xa;
                        <mxPoint x="240" y="450" as="targetPoint"/>
                        &#xa;
                        <Array as="points">
                            &#xa;
                            <mxPoint x="240" y="450"/>
                            &#xa;
                        </Array>
                        &#xa;
                    </mxGeometry>
                    &#xa;
                </mxCell>
                &#xa;
                <mxCell id="113" style="edgeStyle=orthogonalEdgeStyle;rounded=0;orthogonalLoop=1;jettySize=auto;html=1;endArrow=classic;endFill=1;strokeColor=#FFFFFF;strokeWidth=2;entryX=0.6;entryY=0;entryDx=0;entryDy=0;entryPerimeter=0;" parent="1" target="182" edge="1">
                    &#xa;
                    <mxGeometry relative="1" as="geometry">
                        &#xa;
                        <mxPoint x="360" y="410" as="sourcePoint"/>
                        &#xa;
                        <mxPoint x="360" y="430" as="targetPoint"/>
                        &#xa;
                        <Array as="points"/>
                        &#xa;
                    </mxGeometry>
                    &#xa;
                </mxCell>
                &#xa;
                <mxCell id="105" value="L" style="rounded=0;whiteSpace=wrap;html=1;fontSize=16;strokeWidth=3;fontStyle=1;strokeColor=#999999;" parent="1" vertex="1">
                    &#xa;
                    <mxGeometry x="200" y="450" width="100" height="30" as="geometry"/>
                    &#xa;
                </mxCell>
                &#xa;
                <mxCell id="182" value="R" style="rounded=0;whiteSpace=wrap;html=1;fontSize=16;strokeWidth=3;fontStyle=1;strokeColor=#999999;" parent="1" vertex="1">
                    &#xa;
                    <mxGeometry x="300" y="450" width="100" height="30" as="geometry"/>
                    &#xa;
                </mxCell>
                &#xa;
            </root>
            &#xa;
        </mxGraphModel>
        &#xa;
    </diagram>
    <diagram id="U_R2q9T0OXgrVDthtuTg" name="Function">
        &#xa;
        <mxGraphModel dx="561" dy="437" grid="1" gridSize="10" guides="1" tooltips="1" connect="1" arrows="1" fold="1" page="1" pageScale="1" pageWidth="827" pageHeight="1169" math="0" shadow="0">
            &#xa;
            <root>
                &#xa;
                <mxCell id="FzuVjp7x2PDbInK_Tgkp-0"/>
                &#xa;
                <mxCell id="FzuVjp7x2PDbInK_Tgkp-1" parent="FzuVjp7x2PDbInK_Tgkp-0"/>
                &#xa;
                <mxCell id="0" value="" style="group;labelBackgroundColor=none;" parent="FzuVjp7x2PDbInK_Tgkp-1" vertex="1" connectable="0">
                    &#xa;
                    <mxGeometry x="380" y="140" width="160" height="70" as="geometry"/>
                    &#xa;
                </mxCell>
                &#xa;
                <mxCell id="1" style="edgeStyle=orthogonalEdgeStyle;rounded=0;orthogonalLoop=1;jettySize=auto;html=1;exitX=0.5;exitY=1;exitDx=0;exitDy=0;endArrow=classic;endFill=1;strokeColor=#FFFFFF;strokeWidth=2;fontSize=12;verticalAlign=middle;" parent="0" edge="1">
                    &#xa;
                    <mxGeometry relative="1" as="geometry">
                        &#xa;
                        <mxPoint x="10" y="50" as="targetPoint"/>
                        &#xa;
                        <mxPoint x="10" y="10" as="sourcePoint"/>
                        &#xa;
                    </mxGeometry>
                    &#xa;
                </mxCell>
                &#xa;
                <mxCell id="2" value="" style="group" parent="0" vertex="1" connectable="0">
                    &#xa;
                    <mxGeometry y="50" width="160" height="40" as="geometry"/>
                    &#xa;
                </mxCell>
                &#xa;
                <mxCell id="3" style="edgeStyle=orthogonalEdgeStyle;rounded=0;orthogonalLoop=1;jettySize=auto;html=1;entryX=1;entryY=0.25;entryDx=0;entryDy=0;startArrow=none;startFill=0;strokeColor=#FFFFFF;strokeWidth=2;fontSize=10;fontColor=#FFFFFF;" parent="2" edge="1">
                    &#xa;
                    <mxGeometry relative="1" as="geometry">
                        &#xa;
                        <mxPoint x="50" y="29.899999999999977" as="sourcePoint"/>
                        &#xa;
                        <mxPoint x="20" y="29.899999999999977" as="targetPoint"/>
                        &#xa;
                    </mxGeometry>
                    &#xa;
                </mxCell>
                &#xa;
                <mxCell id="4" value="&lt;div style=&quot;color: rgb(248, 248, 242); font-family: &amp;quot;source code pro&amp;quot;, consolas, &amp;quot;microsoft jhenghei&amp;quot;, &amp;quot;courier new&amp;quot;, monospace, consolas, &amp;quot;courier new&amp;quot;, monospace; font-weight: normal; font-size: 10px; line-height: 19px;&quot;&gt;&lt;div style=&quot;font-family: &amp;quot;source code pro&amp;quot;, consolas, &amp;quot;microsoft jhenghei&amp;quot;, &amp;quot;courier new&amp;quot;, monospace, consolas, &amp;quot;courier new&amp;quot;, monospace; font-size: 10px; line-height: 19px;&quot;&gt;&lt;span style=&quot;color: rgb(249, 38, 114); font-size: 10px;&quot;&gt;0x&lt;/span&gt;&lt;span style=&quot;color: rgb(174, 129, 255); font-size: 10px;&quot;&gt;cc74f0e4b37aa6ef&lt;/span&gt;&lt;/div&gt;&lt;/div&gt;" style="rounded=0;whiteSpace=wrap;html=1;fontSize=10;strokeWidth=2;fontStyle=1;strokeColor=#999999;labelBackgroundColor=none;verticalAlign=middle;" parent="2" vertex="1">
                    &#xa;
                    <mxGeometry x="50" width="110" height="20" as="geometry"/>
                    &#xa;
                </mxCell>
                &#xa;
                <mxCell id="5" value="G" style="rounded=0;whiteSpace=wrap;html=1;fontSize=12;strokeWidth=3;fontStyle=1;strokeColor=#999999;verticalAlign=middle;" parent="2" vertex="1">
                    &#xa;
                    <mxGeometry width="20" height="40" as="geometry"/>
                    &#xa;
                </mxCell>
                &#xa;
                <mxCell id="6" style="edgeStyle=orthogonalEdgeStyle;rounded=0;orthogonalLoop=1;jettySize=auto;html=1;entryX=1;entryY=0.25;entryDx=0;entryDy=0;startArrow=none;startFill=0;strokeColor=#FFFFFF;strokeWidth=2;fontSize=10;fontColor=#FFFFFF;" parent="2" source="4" target="5" edge="1">
                    &#xa;
                    <mxGeometry relative="1" as="geometry"/>
                    &#xa;
                </mxCell>
                &#xa;
                <mxCell id="7" value="&lt;div style=&quot;color: rgb(248, 248, 242); font-family: &amp;quot;source code pro&amp;quot;, consolas, &amp;quot;microsoft jhenghei&amp;quot;, &amp;quot;courier new&amp;quot;, monospace, consolas, &amp;quot;courier new&amp;quot;, monospace; font-weight: normal; font-size: 10px; line-height: 19px;&quot;&gt;&lt;div style=&quot;font-family: &amp;quot;source code pro&amp;quot;, consolas, &amp;quot;microsoft jhenghei&amp;quot;, &amp;quot;courier new&amp;quot;, monospace, consolas, &amp;quot;courier new&amp;quot;, monospace; font-size: 10px; line-height: 19px;&quot;&gt;&lt;span style=&quot;color: rgb(249, 38, 114); font-size: 10px;&quot;&gt;0x&lt;/span&gt;&lt;span style=&quot;color: rgb(174, 129, 255); font-size: 10px;&quot;&gt;0da4527eee7a35b7&lt;/span&gt;&lt;/div&gt;&lt;/div&gt;" style="rounded=0;whiteSpace=wrap;html=1;fontSize=10;strokeWidth=2;fontStyle=1;strokeColor=#999999;labelBackgroundColor=none;verticalAlign=middle;" parent="2" vertex="1">
                    &#xa;
                    <mxGeometry x="50" y="20" width="110" height="20" as="geometry"/>
                    &#xa;
                </mxCell>
                &#xa;
                <mxCell id="8" value="" style="group;labelBackgroundColor=none;" parent="FzuVjp7x2PDbInK_Tgkp-1" vertex="1" connectable="0">
                    &#xa;
                    <mxGeometry x="380" y="120" width="160" height="40" as="geometry"/>
                    &#xa;
                </mxCell>
                &#xa;
                <mxCell id="9" style="edgeStyle=orthogonalEdgeStyle;rounded=0;orthogonalLoop=1;jettySize=auto;html=1;entryX=1;entryY=0.25;entryDx=0;entryDy=0;startArrow=none;startFill=0;strokeColor=#FFFFFF;strokeWidth=2;fontSize=10;fontColor=#FFFFFF;" parent="8" edge="1">
                    &#xa;
                    <mxGeometry relative="1" as="geometry">
                        &#xa;
                        <mxPoint x="50" y="29.899999999999977" as="sourcePoint"/>
                        &#xa;
                        <mxPoint x="20" y="29.899999999999977" as="targetPoint"/>
                        &#xa;
                    </mxGeometry>
                    &#xa;
                </mxCell>
                &#xa;
                <mxCell id="10" style="edgeStyle=orthogonalEdgeStyle;rounded=0;orthogonalLoop=1;jettySize=auto;html=1;endArrow=classic;endFill=1;strokeColor=#FFFFFF;strokeWidth=2;fontSize=12;verticalAlign=middle;exitX=0.5;exitY=1;exitDx=0;exitDy=0;" parent="8" source="37" edge="1">
                    &#xa;
                    <mxGeometry relative="1" as="geometry">
                        &#xa;
                        <mxPoint x="10" as="targetPoint"/>
                        &#xa;
                        <mxPoint x="-20" y="-20" as="sourcePoint"/>
                        &#xa;
                        <Array as="points">
                            &#xa;
                            <mxPoint x="-170" y="190"/>
                            &#xa;
                            <mxPoint x="-10" y="190"/>
                            &#xa;
                            <mxPoint x="-10" y="-30"/>
                            &#xa;
                            <mxPoint x="10" y="-30"/>
                            &#xa;
                        </Array>
                        &#xa;
                    </mxGeometry>
                    &#xa;
                </mxCell>
                &#xa;
                <mxCell id="11" value="&lt;div style=&quot;color: rgb(248, 248, 242); font-family: &amp;quot;source code pro&amp;quot;, consolas, &amp;quot;microsoft jhenghei&amp;quot;, &amp;quot;courier new&amp;quot;, monospace, consolas, &amp;quot;courier new&amp;quot;, monospace; font-weight: normal; font-size: 10px; line-height: 19px;&quot;&gt;&lt;div style=&quot;font-family: &amp;quot;source code pro&amp;quot;, consolas, &amp;quot;microsoft jhenghei&amp;quot;, &amp;quot;courier new&amp;quot;, monospace, consolas, &amp;quot;courier new&amp;quot;, monospace; font-size: 10px; line-height: 19px;&quot;&gt;&lt;span style=&quot;color: rgb(249, 38, 114); font-size: 10px;&quot;&gt;0x&lt;/span&gt;&lt;span style=&quot;color: rgb(174, 129, 255); font-size: 10px;&quot;&gt;d1cc5e9b4eb66b90&lt;/span&gt;&lt;/div&gt;&lt;/div&gt;" style="rounded=0;whiteSpace=wrap;html=1;fontSize=10;strokeWidth=2;fontStyle=1;strokeColor=#999999;labelBackgroundColor=none;verticalAlign=middle;" parent="8" vertex="1">
                    &#xa;
                    <mxGeometry x="50" width="110" height="20" as="geometry"/>
                    &#xa;
                </mxCell>
                &#xa;
                <mxCell id="12" value="G" style="rounded=0;whiteSpace=wrap;html=1;fontSize=12;strokeWidth=3;fontStyle=1;strokeColor=#999999;verticalAlign=middle;" parent="8" vertex="1">
                    &#xa;
                    <mxGeometry width="20" height="40" as="geometry"/>
                    &#xa;
                </mxCell>
                &#xa;
                <mxCell id="13" style="edgeStyle=orthogonalEdgeStyle;rounded=0;orthogonalLoop=1;jettySize=auto;html=1;entryX=1;entryY=0.25;entryDx=0;entryDy=0;startArrow=none;startFill=0;strokeColor=#FFFFFF;strokeWidth=2;fontSize=10;fontColor=#FFFFFF;" parent="8" source="11" target="12" edge="1">
                    &#xa;
                    <mxGeometry relative="1" as="geometry"/>
                    &#xa;
                </mxCell>
                &#xa;
                <mxCell id="14" value="&lt;div style=&quot;color: rgb(248, 248, 242); font-family: &amp;quot;source code pro&amp;quot;, consolas, &amp;quot;microsoft jhenghei&amp;quot;, &amp;quot;courier new&amp;quot;, monospace, consolas, &amp;quot;courier new&amp;quot;, monospace; font-weight: normal; font-size: 10px; line-height: 19px;&quot;&gt;&lt;div style=&quot;font-family: &amp;quot;source code pro&amp;quot;, consolas, &amp;quot;microsoft jhenghei&amp;quot;, &amp;quot;courier new&amp;quot;, monospace, consolas, &amp;quot;courier new&amp;quot;, monospace; font-size: 10px; line-height: 19px;&quot;&gt;&lt;span style=&quot;color: rgb(249, 38, 114); font-size: 10px;&quot;&gt;0x&lt;/span&gt;&lt;span style=&quot;color: rgb(174, 129, 255); font-size: 10px;&quot;&gt;d2ec42b22ed6ad52&lt;/span&gt;&lt;/div&gt;&lt;/div&gt;" style="rounded=0;whiteSpace=wrap;html=1;fontSize=10;strokeWidth=2;fontStyle=1;strokeColor=#999999;labelBackgroundColor=none;verticalAlign=middle;" parent="8" vertex="1">
                    &#xa;
                    <mxGeometry x="50" y="20" width="110" height="20" as="geometry"/>
                    &#xa;
                </mxCell>
                &#xa;
                <mxCell id="15" value="" style="endArrow=none;html=1;strokeColor=#FFFFFF;strokeWidth=2;rounded=0;startArrow=classic;startFill=1;fontSize=12;verticalAlign=middle;exitX=0.875;exitY=0;exitDx=0;exitDy=0;exitPerimeter=0;" parent="FzuVjp7x2PDbInK_Tgkp-1" source="30" edge="1">
                    &#xa;
                    <mxGeometry width="50" height="50" relative="1" as="geometry">
                        &#xa;
                        <mxPoint x="350" y="160" as="sourcePoint"/>
                        &#xa;
                        <mxPoint x="240" y="150" as="targetPoint"/>
                        &#xa;
                        <Array as="points">
                            &#xa;
                            <mxPoint x="350" y="150"/>
                            &#xa;
                        </Array>
                        &#xa;
                    </mxGeometry>
                    &#xa;
                </mxCell>
                &#xa;
                <mxCell id="16" value="" style="endArrow=none;html=1;strokeColor=#FFFFFF;strokeWidth=2;entryX=0.875;entryY=1;entryDx=0;entryDy=0;rounded=0;fontSize=12;verticalAlign=middle;entryPerimeter=0;" parent="FzuVjp7x2PDbInK_Tgkp-1" target="28" edge="1">
                    &#xa;
                    <mxGeometry width="50" height="50" relative="1" as="geometry">
                        &#xa;
                        <mxPoint x="210" y="240" as="sourcePoint"/>
                        &#xa;
                        <mxPoint x="430" y="280" as="targetPoint"/>
                        &#xa;
                        <Array as="points">
                            &#xa;
                            <mxPoint x="320" y="240"/>
                            &#xa;
                            <mxPoint x="350" y="240"/>
                            &#xa;
                        </Array>
                        &#xa;
                    </mxGeometry>
                    &#xa;
                </mxCell>
                &#xa;
                <mxCell id="17" value="" style="endArrow=classic;html=1;strokeColor=#FFFFFF;strokeWidth=2;rounded=0;exitX=0.125;exitY=1;exitDx=0;exitDy=0;entryX=0.125;entryY=0;entryDx=0;entryDy=0;fontSize=12;verticalAlign=middle;exitPerimeter=0;entryPerimeter=0;" parent="FzuVjp7x2PDbInK_Tgkp-1" source="29" target="27" edge="1">
                    &#xa;
                    <mxGeometry width="50" height="50" relative="1" as="geometry">
                        &#xa;
                        <mxPoint x="230" y="200" as="sourcePoint"/>
                        &#xa;
                        <mxPoint x="340" y="230" as="targetPoint"/>
                        &#xa;
                        <Array as="points"/>
                        &#xa;
                    </mxGeometry>
                    &#xa;
                </mxCell>
                &#xa;
                <mxCell id="18" value="" style="endArrow=classic;html=1;strokeColor=#FFFFFF;strokeWidth=2;entryX=0.875;entryY=0;entryDx=0;entryDy=0;rounded=0;exitX=0.875;exitY=1;exitDx=0;exitDy=0;fontSize=12;verticalAlign=middle;exitPerimeter=0;entryPerimeter=0;" parent="FzuVjp7x2PDbInK_Tgkp-1" source="30" target="28" edge="1">
                    &#xa;
                    <mxGeometry width="50" height="50" relative="1" as="geometry">
                        &#xa;
                        <mxPoint x="110" y="170" as="sourcePoint"/>
                        &#xa;
                        <mxPoint x="-50" y="270" as="targetPoint"/>
                        &#xa;
                        <Array as="points"/>
                        &#xa;
                    </mxGeometry>
                    &#xa;
                </mxCell>
                &#xa;
                <mxCell id="19" style="edgeStyle=orthogonalEdgeStyle;rounded=0;orthogonalLoop=1;jettySize=auto;html=1;endArrow=classic;endFill=1;strokeColor=#FFFFFF;strokeWidth=2;fontSize=12;verticalAlign=middle;exitX=0;exitY=0.5;exitDx=0;exitDy=0;" parent="FzuVjp7x2PDbInK_Tgkp-1" source="20" edge="1">
                    &#xa;
                    <mxGeometry relative="1" as="geometry">
                        &#xa;
                        <mxPoint x="250" y="130" as="targetPoint"/>
                        &#xa;
                        <Array as="points"/>
                        &#xa;
                    </mxGeometry>
                    &#xa;
                </mxCell>
                &#xa;
                <mxCell id="20" value="Key" style="rounded=0;whiteSpace=wrap;html=1;fontSize=12;strokeWidth=3;fontStyle=1;strokeColor=#999999;verticalAlign=middle;" parent="FzuVjp7x2PDbInK_Tgkp-1" vertex="1">
                    &#xa;
                    <mxGeometry x="280" y="120" width="80" height="20" as="geometry"/>
                    &#xa;
                </mxCell>
                &#xa;
                <mxCell id="21" style="edgeStyle=orthogonalEdgeStyle;rounded=0;orthogonalLoop=1;jettySize=auto;html=1;endArrow=classic;endFill=1;strokeColor=#FFFFFF;strokeWidth=2;entryX=0.5;entryY=0;entryDx=0;entryDy=0;fontSize=12;verticalAlign=middle;" parent="FzuVjp7x2PDbInK_Tgkp-1" source="22" target="24" edge="1">
                    &#xa;
                    <mxGeometry relative="1" as="geometry">
                        &#xa;
                        <mxPoint x="330" y="170" as="targetPoint"/>
                        &#xa;
                        <Array as="points">
                            &#xa;
                            <mxPoint x="240" y="110"/>
                            &#xa;
                            <mxPoint x="240" y="110"/>
                            &#xa;
                        </Array>
                        &#xa;
                    </mxGeometry>
                    &#xa;
                </mxCell>
                &#xa;
                <mxCell id="22" value="Half Block" style="rounded=0;whiteSpace=wrap;html=1;fontSize=12;strokeWidth=3;fontStyle=1;strokeColor=#999999;verticalAlign=middle;" parent="FzuVjp7x2PDbInK_Tgkp-1" vertex="1">
                    &#xa;
                    <mxGeometry x="200" y="80" width="160" height="20" as="geometry"/>
                    &#xa;
                </mxCell>
                &#xa;
                <mxCell id="23" style="edgeStyle=orthogonalEdgeStyle;rounded=0;orthogonalLoop=1;jettySize=auto;html=1;exitX=0.5;exitY=1;exitDx=0;exitDy=0;endArrow=classic;endFill=1;strokeColor=#FFFFFF;strokeWidth=2;fontSize=12;verticalAlign=middle;entryX=0.125;entryY=0;entryDx=0;entryDy=0;entryPerimeter=0;" parent="FzuVjp7x2PDbInK_Tgkp-1" source="24" target="29" edge="1">
                    &#xa;
                    <mxGeometry relative="1" as="geometry">
                        &#xa;
                        <mxPoint x="210" y="160" as="targetPoint"/>
                        &#xa;
                        <Array as="points">
                            &#xa;
                            <mxPoint x="240" y="150"/>
                            &#xa;
                            <mxPoint x="210" y="150"/>
                            &#xa;
                        </Array>
                        &#xa;
                    </mxGeometry>
                    &#xa;
                </mxCell>
                &#xa;
                <mxCell id="24" value="" style="ellipse;whiteSpace=wrap;html=1;aspect=fixed;strokeColor=#FF3333;strokeWidth=2;fontSize=12;verticalAlign=middle;" parent="FzuVjp7x2PDbInK_Tgkp-1" vertex="1">
                    &#xa;
                    <mxGeometry x="230" y="120" width="20" height="20" as="geometry"/>
                    &#xa;
                </mxCell>
                &#xa;
                <mxCell id="25" value="" style="endArrow=none;html=1;exitX=0.5;exitY=0;exitDx=0;exitDy=0;entryX=0.5;entryY=1;entryDx=0;entryDy=0;strokeColor=#FF3333;strokeWidth=2;fontSize=12;verticalAlign=middle;" parent="FzuVjp7x2PDbInK_Tgkp-1" source="24" target="24" edge="1">
                    &#xa;
                    <mxGeometry width="50" height="50" relative="1" as="geometry">
                        &#xa;
                        <mxPoint x="275" y="125" as="sourcePoint"/>
                        &#xa;
                        <mxPoint x="295" y="125" as="targetPoint"/>
                        &#xa;
                    </mxGeometry>
                    &#xa;
                </mxCell>
                &#xa;
                <mxCell id="26" value="" style="endArrow=none;html=1;exitX=0;exitY=0.5;exitDx=0;exitDy=0;entryX=1;entryY=0.5;entryDx=0;entryDy=0;strokeColor=#FF3333;strokeWidth=2;fontSize=12;verticalAlign=middle;" parent="FzuVjp7x2PDbInK_Tgkp-1" source="24" target="24" edge="1">
                    &#xa;
                    <mxGeometry width="50" height="50" relative="1" as="geometry">
                        &#xa;
                        <mxPoint x="390" y="210" as="sourcePoint"/>
                        &#xa;
                        <mxPoint x="390" y="230" as="targetPoint"/>
                        &#xa;
                    </mxGeometry>
                    &#xa;
                </mxCell>
                &#xa;
                <mxCell id="27" value="S" style="rounded=0;whiteSpace=wrap;html=1;fontSize=12;strokeWidth=3;fontStyle=1;strokeColor=#999999;verticalAlign=middle;" parent="FzuVjp7x2PDbInK_Tgkp-1" vertex="1">
                    &#xa;
                    <mxGeometry x="200" y="210" width="80" height="20" as="geometry"/>
                    &#xa;
                </mxCell>
                &#xa;
                <mxCell id="28" value="S" style="rounded=0;whiteSpace=wrap;html=1;fontSize=12;strokeWidth=3;fontStyle=1;strokeColor=#999999;verticalAlign=middle;" parent="FzuVjp7x2PDbInK_Tgkp-1" vertex="1">
                    &#xa;
                    <mxGeometry x="280" y="210" width="80" height="20" as="geometry"/>
                    &#xa;
                </mxCell>
                &#xa;
                <mxCell id="29" value="&lt;span style=&quot;font-size: 12px;&quot;&gt;High 32 bits&lt;/span&gt;" style="rounded=0;whiteSpace=wrap;html=1;fontSize=12;strokeWidth=3;fontStyle=1;strokeColor=#999999;verticalAlign=middle;" parent="FzuVjp7x2PDbInK_Tgkp-1" vertex="1">
                    &#xa;
                    <mxGeometry x="200" y="170" width="80" height="20" as="geometry"/>
                    &#xa;
                </mxCell>
                &#xa;
                <mxCell id="30" value="&lt;span style=&quot;font-size: 12px;&quot;&gt;Low 32 bits&lt;/span&gt;" style="rounded=0;whiteSpace=wrap;html=1;fontSize=12;strokeWidth=3;fontStyle=1;strokeColor=#999999;verticalAlign=middle;" parent="FzuVjp7x2PDbInK_Tgkp-1" vertex="1">
                    &#xa;
                    <mxGeometry x="280" y="170" width="80" height="20" as="geometry"/>
                    &#xa;
                </mxCell>
                &#xa;
                <mxCell id="31" style="edgeStyle=orthogonalEdgeStyle;rounded=0;orthogonalLoop=1;jettySize=auto;html=1;exitX=0.5;exitY=1;exitDx=0;exitDy=0;endArrow=classic;endFill=1;strokeColor=#FFFFFF;strokeWidth=2;fontSize=12;verticalAlign=middle;" parent="FzuVjp7x2PDbInK_Tgkp-1" source="32" edge="1">
                    &#xa;
                    <mxGeometry relative="1" as="geometry">
                        &#xa;
                        <mxPoint x="460" y="310" as="targetPoint"/>
                        &#xa;
                        <Array as="points">
                            &#xa;
                            <mxPoint x="460" y="290"/>
                            &#xa;
                            <mxPoint x="460" y="290"/>
                            &#xa;
                        </Array>
                        &#xa;
                    </mxGeometry>
                    &#xa;
                </mxCell>
                &#xa;
                <mxCell id="32" value="P" style="rounded=0;whiteSpace=wrap;html=1;fontSize=12;strokeWidth=3;fontStyle=1;strokeColor=#999999;verticalAlign=middle;" parent="FzuVjp7x2PDbInK_Tgkp-1" vertex="1">
                    &#xa;
                    <mxGeometry x="380" y="260" width="160" height="20" as="geometry"/>
                    &#xa;
                </mxCell>
                &#xa;
                <mxCell id="33" value="" style="group" parent="FzuVjp7x2PDbInK_Tgkp-1" vertex="1" connectable="0">
                    &#xa;
                    <mxGeometry x="200" y="260" width="160" height="40" as="geometry"/>
                    &#xa;
                </mxCell>
                &#xa;
                <mxCell id="34" style="edgeStyle=orthogonalEdgeStyle;rounded=0;orthogonalLoop=1;jettySize=auto;html=1;entryX=1;entryY=0.25;entryDx=0;entryDy=0;startArrow=none;startFill=0;strokeColor=#FFFFFF;strokeWidth=2;fontSize=10;fontColor=#FFFFFF;" parent="33" edge="1">
                    &#xa;
                    <mxGeometry relative="1" as="geometry">
                        &#xa;
                        <mxPoint x="50" y="29.899999999999977" as="sourcePoint"/>
                        &#xa;
                        <mxPoint x="20" y="29.899999999999977" as="targetPoint"/>
                        &#xa;
                    </mxGeometry>
                    &#xa;
                </mxCell>
                &#xa;
                <mxCell id="35" style="edgeStyle=orthogonalEdgeStyle;rounded=0;orthogonalLoop=1;jettySize=auto;html=1;endArrow=classic;endFill=1;strokeColor=#FFFFFF;strokeWidth=2;fontSize=12;verticalAlign=middle;exitX=0.125;exitY=1;exitDx=0;exitDy=0;exitPerimeter=0;" parent="33" source="27" edge="1">
                    &#xa;
                    <mxGeometry relative="1" as="geometry">
                        &#xa;
                        <mxPoint x="10" as="targetPoint"/>
                        &#xa;
                        <mxPoint x="10" y="-20" as="sourcePoint"/>
                        &#xa;
                        <Array as="points"/>
                        &#xa;
                    </mxGeometry>
                    &#xa;
                </mxCell>
                &#xa;
                <mxCell id="36" value="&lt;div style=&quot;color: rgb(248, 248, 242); font-family: &amp;quot;source code pro&amp;quot;, consolas, &amp;quot;microsoft jhenghei&amp;quot;, &amp;quot;courier new&amp;quot;, monospace, consolas, &amp;quot;courier new&amp;quot;, monospace; font-weight: normal; font-size: 10px; line-height: 19px;&quot;&gt;&lt;span style=&quot;color: rgb(249, 38, 114); font-size: 10px;&quot;&gt;0x&lt;/span&gt;&lt;span style=&quot;color: rgb(174, 129, 255); font-size: 10px;&quot;&gt;f35a82e5759b0fa8&lt;/span&gt;&lt;/div&gt;" style="rounded=0;whiteSpace=wrap;html=1;fontSize=10;strokeWidth=2;fontStyle=1;strokeColor=#999999;labelBackgroundColor=none;verticalAlign=middle;" parent="33" vertex="1">
                    &#xa;
                    <mxGeometry x="50" width="110" height="20" as="geometry"/>
                    &#xa;
                </mxCell>
                &#xa;
                <mxCell id="37" value="G" style="rounded=0;whiteSpace=wrap;html=1;fontSize=12;strokeWidth=3;fontStyle=1;strokeColor=#999999;verticalAlign=middle;" parent="33" vertex="1">
                    &#xa;
                    <mxGeometry width="20" height="40" as="geometry"/>
                    &#xa;
                </mxCell>
                &#xa;
                <mxCell id="38" style="edgeStyle=orthogonalEdgeStyle;rounded=0;orthogonalLoop=1;jettySize=auto;html=1;entryX=1;entryY=0.25;entryDx=0;entryDy=0;startArrow=none;startFill=0;strokeColor=#FFFFFF;strokeWidth=2;fontSize=10;fontColor=#FFFFFF;" parent="33" source="36" target="37" edge="1">
                    &#xa;
                    <mxGeometry relative="1" as="geometry"/>
                    &#xa;
                </mxCell>
                &#xa;
                <mxCell id="39" value="&lt;div style=&quot;color: rgb(248 , 248 , 242) ; font-family: &amp;#34;source code pro&amp;#34; , &amp;#34;consolas&amp;#34; , &amp;#34;microsoft jhenghei&amp;#34; , &amp;#34;courier new&amp;#34; , monospace , &amp;#34;consolas&amp;#34; , &amp;#34;courier new&amp;#34; , monospace ; font-weight: normal ; line-height: 19px&quot;&gt;&lt;div style=&quot;font-family: &amp;#34;source code pro&amp;#34; , &amp;#34;consolas&amp;#34; , &amp;#34;microsoft jhenghei&amp;#34; , &amp;#34;courier new&amp;#34; , monospace , &amp;#34;consolas&amp;#34; , &amp;#34;courier new&amp;#34; , monospace ; line-height: 19px&quot;&gt;&lt;span style=&quot;color: rgb(249 , 38 , 114)&quot;&gt;0x&lt;/span&gt;&lt;span style=&quot;color: rgb(174 , 129 , 255)&quot;&gt;d0742001811ef175&lt;/span&gt;&lt;/div&gt;&lt;/div&gt;" style="rounded=0;whiteSpace=wrap;html=1;fontSize=10;strokeWidth=2;fontStyle=1;strokeColor=#999999;labelBackgroundColor=none;verticalAlign=middle;" parent="33" vertex="1">
                    &#xa;
                    <mxGeometry x="50" y="20" width="110" height="20" as="geometry"/>
                    &#xa;
                </mxCell>
                &#xa;
                <mxCell id="40" style="edgeStyle=orthogonalEdgeStyle;rounded=0;orthogonalLoop=1;jettySize=auto;html=1;entryX=0.5;entryY=0;entryDx=0;entryDy=0;startArrow=none;startFill=0;strokeColor=#FFFFFF;strokeWidth=2;fontSize=10;fontColor=#FFFFFF;" parent="FzuVjp7x2PDbInK_Tgkp-1" target="32" edge="1">
                    &#xa;
                    <mxGeometry relative="1" as="geometry">
                        &#xa;
                        <mxPoint x="390" y="230" as="sourcePoint"/>
                        &#xa;
                        <Array as="points">
                            &#xa;
                            <mxPoint x="390" y="240"/>
                            &#xa;
                            <mxPoint x="460" y="240"/>
                            &#xa;
                        </Array>
                        &#xa;
                    </mxGeometry>
                    &#xa;
                </mxCell>
                &#xa;
            </root>
            &#xa;
        </mxGraphModel>
        &#xa;
    </diagram>
    <diagram id="J54IEWdrNkLi6PHI0xqg" name="FuncG">
        &#xa;
        <mxGraphModel dx="561" dy="437" grid="1" gridSize="10" guides="1" tooltips="1" connect="1" arrows="1" fold="1" page="1" pageScale="1" pageWidth="827" pageHeight="1169" math="0" shadow="0">
            &#xa;
            <root>
                &#xa;
                <mxCell id="SxeeXWSx5oeQbrjc7jyD-0"/>
                &#xa;
                <mxCell id="SxeeXWSx5oeQbrjc7jyD-1" parent="SxeeXWSx5oeQbrjc7jyD-0"/>
                &#xa;
                <mxCell id="27" value="" style="endArrow=classic;html=1;strokeColor=#FFFFFF;strokeWidth=2;fontSize=12;fontColor=#FFFFFF;entryX=0.5;entryY=0;entryDx=0;entryDy=0;exitX=0.5;exitY=1;exitDx=0;exitDy=0;verticalAlign=middle;" parent="SxeeXWSx5oeQbrjc7jyD-1" edge="1">
                    &#xa;
                    <mxGeometry x="319.86" y="100" width="50" height="50" as="geometry">
                        &#xa;
                        <mxPoint x="339.86" y="160" as="sourcePoint"/>
                        &#xa;
                        <mxPoint x="339.86" y="180" as="targetPoint"/>
                        &#xa;
                    </mxGeometry>
                    &#xa;
                </mxCell>
                &#xa;
                <mxCell id="SxeeXWSx5oeQbrjc7jyD-3" value="" style="endArrow=classic;html=1;strokeColor=#FFFFFF;strokeWidth=2;fontSize=12;fontColor=#FFFFFF;entryX=0.5;entryY=0;entryDx=0;entryDy=0;exitX=0.5;exitY=1;exitDx=0;exitDy=0;verticalAlign=middle;" parent="SxeeXWSx5oeQbrjc7jyD-1" edge="1">
                    &#xa;
                    <mxGeometry x="320" y="60" width="50" height="50" as="geometry">
                        &#xa;
                        <mxPoint x="339.8299999999999" y="80" as="sourcePoint"/>
                        &#xa;
                        <mxPoint x="339.8299999999999" y="100" as="targetPoint"/>
                        &#xa;
                    </mxGeometry>
                    &#xa;
                </mxCell>
                &#xa;
                <mxCell id="SxeeXWSx5oeQbrjc7jyD-6" style="edgeStyle=orthogonalEdgeStyle;rounded=0;orthogonalLoop=1;jettySize=auto;html=1;strokeWidth=2;strokeColor=#FFFFFF;exitX=0;exitY=0.5;exitDx=0;exitDy=0;fontSize=12;verticalAlign=middle;" parent="SxeeXWSx5oeQbrjc7jyD-1" source="SxeeXWSx5oeQbrjc7jyD-13" edge="1">
                    &#xa;
                    <mxGeometry x="320" y="20" as="geometry">
                        &#xa;
                        <mxPoint x="390" y="110" as="sourcePoint"/>
                        &#xa;
                        <mxPoint x="350" y="110" as="targetPoint"/>
                        &#xa;
                        <Array as="points"/>
                        &#xa;
                    </mxGeometry>
                    &#xa;
                </mxCell>
                &#xa;
                <mxCell id="SxeeXWSx5oeQbrjc7jyD-9" value="" style="endArrow=classic;html=1;strokeColor=#FFFFFF;strokeWidth=2;fontSize=12;fontColor=#FFFFFF;entryX=0.5;entryY=0;entryDx=0;entryDy=0;verticalAlign=middle;" parent="SxeeXWSx5oeQbrjc7jyD-1" target="SxeeXWSx5oeQbrjc7jyD-12" edge="1">
                    &#xa;
                    <mxGeometry x="320" y="90" width="50" height="50" as="geometry">
                        &#xa;
                        <mxPoint x="340" y="200" as="sourcePoint"/>
                        &#xa;
                        <mxPoint x="340" y="220" as="targetPoint"/>
                        &#xa;
                    </mxGeometry>
                    &#xa;
                </mxCell>
                &#xa;
                <mxCell id="SxeeXWSx5oeQbrjc7jyD-12" value="Low 32 bits" style="rounded=0;whiteSpace=wrap;html=1;fontSize=12;strokeWidth=3;fontStyle=1;strokeColor=#999999;verticalAlign=middle;" parent="SxeeXWSx5oeQbrjc7jyD-1" vertex="1">
                    &#xa;
                    <mxGeometry x="300" y="230" width="80" height="20" as="geometry"/>
                    &#xa;
                </mxCell>
                &#xa;
                <mxCell id="SxeeXWSx5oeQbrjc7jyD-13" value="&lt;div style=&quot;font-family: &amp;quot;source code pro&amp;quot;, consolas, &amp;quot;microsoft jhenghei&amp;quot;, &amp;quot;courier new&amp;quot;, monospace, consolas, &amp;quot;courier new&amp;quot;, monospace; font-weight: normal; font-size: 12px; line-height: 19px;&quot;&gt;&lt;span style=&quot;font-family: helvetica; font-size: 12px; font-weight: 700;&quot;&gt;Const 1&lt;/span&gt;&lt;br style=&quot;font-size: 12px;&quot;&gt;&lt;/div&gt;" style="rounded=0;whiteSpace=wrap;html=1;fontSize=12;strokeWidth=3;fontStyle=1;strokeColor=#999999;labelBackgroundColor=none;verticalAlign=middle;" parent="SxeeXWSx5oeQbrjc7jyD-1" vertex="1">
                    &#xa;
                    <mxGeometry x="380" y="100" width="80" height="20" as="geometry"/>
                    &#xa;
                </mxCell>
                &#xa;
                <mxCell id="SxeeXWSx5oeQbrjc7jyD-14" value="&lt;div style=&quot;font-size: 12px ; line-height: 19px&quot;&gt;&lt;font face=&quot;helvetica&quot;&gt;Input&lt;/font&gt;&lt;/div&gt;" style="rounded=0;whiteSpace=wrap;html=1;fontSize=12;strokeWidth=3;fontStyle=1;strokeColor=#999999;labelBackgroundColor=none;verticalAlign=middle;" parent="SxeeXWSx5oeQbrjc7jyD-1" vertex="1">
                    &#xa;
                    <mxGeometry x="300" y="60" width="160" height="20" as="geometry"/>
                    &#xa;
                </mxCell>
                &#xa;
                <mxCell id="SxeeXWSx5oeQbrjc7jyD-18" style="edgeStyle=orthogonalEdgeStyle;rounded=0;orthogonalLoop=1;jettySize=auto;html=1;strokeWidth=2;strokeColor=#FFFFFF;fontSize=12;verticalAlign=middle;exitX=0;exitY=0.5;exitDx=0;exitDy=0;" parent="SxeeXWSx5oeQbrjc7jyD-1" source="SxeeXWSx5oeQbrjc7jyD-22" edge="1">
                    &#xa;
                    <mxGeometry x="330" y="140" as="geometry">
                        &#xa;
                        <mxPoint x="350" y="190" as="targetPoint"/>
                        &#xa;
                        <Array as="points"/>
                        &#xa;
                        <mxPoint x="370" y="189.99999999999994" as="sourcePoint"/>
                        &#xa;
                    </mxGeometry>
                    &#xa;
                </mxCell>
                &#xa;
                <mxCell id="SxeeXWSx5oeQbrjc7jyD-21" value="" style="endArrow=classic;html=1;strokeColor=#FFFFFF;strokeWidth=2;fontSize=12;fontColor=#FFFFFF;entryX=0.5;entryY=0;entryDx=0;entryDy=0;exitX=0.5;exitY=1;exitDx=0;exitDy=0;verticalAlign=middle;" parent="SxeeXWSx5oeQbrjc7jyD-1" target="21" edge="1">
                    &#xa;
                    <mxGeometry x="320" y="60" width="50" height="50" as="geometry">
                        &#xa;
                        <mxPoint x="340" y="120" as="sourcePoint"/>
                        &#xa;
                        <mxPoint x="350" y="150" as="targetPoint"/>
                        &#xa;
                    </mxGeometry>
                    &#xa;
                </mxCell>
                &#xa;
                <mxCell id="SxeeXWSx5oeQbrjc7jyD-22" value="&lt;div style=&quot;font-family: &amp;#34;source code pro&amp;#34; , &amp;#34;consolas&amp;#34; , &amp;#34;microsoft jhenghei&amp;#34; , &amp;#34;courier new&amp;#34; , monospace , &amp;#34;consolas&amp;#34; , &amp;#34;courier new&amp;#34; , monospace ; font-weight: normal ; font-size: 12px ; line-height: 19px&quot;&gt;&lt;span style=&quot;font-family: &amp;#34;helvetica&amp;#34; ; font-size: 12px ; font-weight: 700&quot;&gt;Const 2&lt;/span&gt;&lt;/div&gt;" style="rounded=0;whiteSpace=wrap;html=1;fontSize=12;strokeWidth=3;fontStyle=1;strokeColor=#999999;labelBackgroundColor=none;verticalAlign=middle;" parent="SxeeXWSx5oeQbrjc7jyD-1" vertex="1">
                    &#xa;
                    <mxGeometry x="380" y="180" width="80" height="20" as="geometry"/>
                    &#xa;
                </mxCell>
                &#xa;
                <mxCell id="21" value="&lt;div style=&quot;line-height: 19px&quot;&gt;&lt;font face=&quot;helvetica&quot;&gt;Ð¯&lt;/font&gt;&lt;br style=&quot;font-size: 12px&quot;&gt;&lt;/div&gt;" style="rounded=0;whiteSpace=wrap;html=1;fontSize=12;strokeWidth=3;fontStyle=1;strokeColor=#999999;labelBackgroundColor=none;verticalAlign=middle;" parent="SxeeXWSx5oeQbrjc7jyD-1" vertex="1">
                    &#xa;
                    <mxGeometry x="300" y="140" width="80" height="20" as="geometry"/>
                    &#xa;
                </mxCell>
                &#xa;
                <mxCell id="22" value="" style="group" parent="SxeeXWSx5oeQbrjc7jyD-1" vertex="1" connectable="0">
                    &#xa;
                    <mxGeometry x="330" y="100" width="20" height="20" as="geometry"/>
                    &#xa;
                </mxCell>
                &#xa;
                <mxCell id="SxeeXWSx5oeQbrjc7jyD-4" value="" style="ellipse;whiteSpace=wrap;html=1;aspect=fixed;strokeColor=#FF3333;strokeWidth=2;fontSize=12;verticalAlign=middle;" parent="22" vertex="1">
                    &#xa;
                    <mxGeometry width="20" height="20" as="geometry"/>
                    &#xa;
                </mxCell>
                &#xa;
                <mxCell id="SxeeXWSx5oeQbrjc7jyD-5" value="" style="endArrow=none;html=1;exitX=0.5;exitY=0;exitDx=0;exitDy=0;entryX=0.5;entryY=1;entryDx=0;entryDy=0;strokeColor=#FF3333;strokeWidth=2;fontSize=12;verticalAlign=middle;" parent="22" source="SxeeXWSx5oeQbrjc7jyD-4" target="SxeeXWSx5oeQbrjc7jyD-4" edge="1">
                    &#xa;
                    <mxGeometry x="-10" y="-80" width="50" height="50" as="geometry">
                        &#xa;
                        <mxPoint x="85" y="-205" as="sourcePoint"/>
                        &#xa;
                        <mxPoint x="105" y="-205" as="targetPoint"/>
                        &#xa;
                    </mxGeometry>
                    &#xa;
                </mxCell>
                &#xa;
                <mxCell id="SxeeXWSx5oeQbrjc7jyD-7" value="" style="endArrow=none;html=1;exitX=0;exitY=0.5;exitDx=0;exitDy=0;entryX=1;entryY=0.5;entryDx=0;entryDy=0;strokeColor=#FF3333;strokeWidth=2;fontSize=12;verticalAlign=middle;" parent="22" source="SxeeXWSx5oeQbrjc7jyD-4" target="SxeeXWSx5oeQbrjc7jyD-4" edge="1">
                    &#xa;
                    <mxGeometry x="-10" y="-80" width="50" height="50" as="geometry">
                        &#xa;
                        <mxPoint x="200" y="-120" as="sourcePoint"/>
                        &#xa;
                        <mxPoint x="200" y="-100" as="targetPoint"/>
                        &#xa;
                    </mxGeometry>
                    &#xa;
                </mxCell>
                &#xa;
                <mxCell id="23" value="" style="group" parent="SxeeXWSx5oeQbrjc7jyD-1" vertex="1" connectable="0">
                    &#xa;
                    <mxGeometry x="330" y="180" width="20" height="20" as="geometry"/>
                    &#xa;
                </mxCell>
                &#xa;
                <mxCell id="SxeeXWSx5oeQbrjc7jyD-16" value="" style="ellipse;whiteSpace=wrap;html=1;aspect=fixed;strokeColor=#FF3333;strokeWidth=2;fontSize=12;verticalAlign=middle;" parent="23" vertex="1">
                    &#xa;
                    <mxGeometry width="20" height="20" as="geometry"/>
                    &#xa;
                </mxCell>
                &#xa;
                <mxCell id="SxeeXWSx5oeQbrjc7jyD-17" value="" style="endArrow=none;html=1;exitX=0.5;exitY=0;exitDx=0;exitDy=0;entryX=0.5;entryY=1;entryDx=0;entryDy=0;strokeColor=#FF3333;strokeWidth=2;fontSize=12;verticalAlign=middle;" parent="23" source="SxeeXWSx5oeQbrjc7jyD-16" target="SxeeXWSx5oeQbrjc7jyD-16" edge="1">
                    &#xa;
                    <mxGeometry y="-40" width="50" height="50" as="geometry">
                        &#xa;
                        <mxPoint x="85" y="-205" as="sourcePoint"/>
                        &#xa;
                        <mxPoint x="105" y="-205" as="targetPoint"/>
                        &#xa;
                    </mxGeometry>
                    &#xa;
                </mxCell>
                &#xa;
                <mxCell id="SxeeXWSx5oeQbrjc7jyD-19" value="" style="endArrow=none;html=1;exitX=0;exitY=0.5;exitDx=0;exitDy=0;entryX=1;entryY=0.5;entryDx=0;entryDy=0;strokeColor=#FF3333;strokeWidth=2;fontSize=12;verticalAlign=middle;" parent="23" source="SxeeXWSx5oeQbrjc7jyD-16" target="SxeeXWSx5oeQbrjc7jyD-16" edge="1">
                    &#xa;
                    <mxGeometry y="-40" width="50" height="50" as="geometry">
                        &#xa;
                        <mxPoint x="200" y="-120" as="sourcePoint"/>
                        &#xa;
                        <mxPoint x="200" y="-100" as="targetPoint"/>
                        &#xa;
                    </mxGeometry>
                    &#xa;
                </mxCell>
                &#xa;
                <mxCell id="25" value="" style="endArrow=classic;html=1;strokeColor=#FFFFFF;strokeWidth=2;fontSize=12;fontColor=#FFFFFF;verticalAlign=middle;rounded=0;" parent="SxeeXWSx5oeQbrjc7jyD-1" target="SxeeXWSx5oeQbrjc7jyD-11" edge="1">
                    &#xa;
                    <mxGeometry x="330" y="90" width="50" height="50" as="geometry">
                        &#xa;
                        <mxPoint x="340" y="210" as="sourcePoint"/>
                        &#xa;
                        <mxPoint x="460" y="210" as="targetPoint"/>
                        &#xa;
                        <Array as="points">
                            &#xa;
                            <mxPoint x="420" y="210"/>
                            &#xa;
                        </Array>
                        &#xa;
                    </mxGeometry>
                    &#xa;
                </mxCell>
                &#xa;
                <mxCell id="SxeeXWSx5oeQbrjc7jyD-11" value="&lt;font style=&quot;font-size: 12px;&quot;&gt;High 32 bits&lt;/font&gt;" style="rounded=0;whiteSpace=wrap;html=1;fontSize=12;strokeWidth=3;fontStyle=1;strokeColor=#999999;verticalAlign=middle;" parent="SxeeXWSx5oeQbrjc7jyD-1" vertex="1">
                    &#xa;
                    <mxGeometry x="380" y="230" width="80" height="20" as="geometry"/>
                    &#xa;
                </mxCell>
                &#xa;
                <mxCell id="vGGe6CTKu5D5BCm3pBxa-29" value="" style="endArrow=classic;html=1;strokeColor=#FFFFFF;strokeWidth=2;fontSize=12;fontColor=#FFFFFF;exitX=0.5;exitY=1;exitDx=0;exitDy=0;verticalAlign=middle;rounded=0;" parent="SxeeXWSx5oeQbrjc7jyD-1" source="SxeeXWSx5oeQbrjc7jyD-12" edge="1">
                    &#xa;
                    <mxGeometry x="329.86" y="110" width="50" height="50" as="geometry">
                        &#xa;
                        <mxPoint x="349.86" y="170" as="sourcePoint"/>
                        &#xa;
                        <mxPoint x="380" y="290" as="targetPoint"/>
                        &#xa;
                        <Array as="points">
                            &#xa;
                            <mxPoint x="340" y="270"/>
                            &#xa;
                            <mxPoint x="380" y="270"/>
                            &#xa;
                        </Array>
                        &#xa;
                    </mxGeometry>
                    &#xa;
                </mxCell>
                &#xa;
                <mxCell id="vGGe6CTKu5D5BCm3pBxa-30" value="" style="endArrow=none;html=1;strokeColor=#FFFFFF;strokeWidth=2;fontSize=12;fontColor=#FFFFFF;exitX=0.5;exitY=1;exitDx=0;exitDy=0;verticalAlign=middle;rounded=0;endFill=0;" parent="SxeeXWSx5oeQbrjc7jyD-1" source="SxeeXWSx5oeQbrjc7jyD-11" edge="1">
                    &#xa;
                    <mxGeometry x="339.86" y="120" width="50" height="50" as="geometry">
                        &#xa;
                        <mxPoint x="350" y="260" as="sourcePoint"/>
                        &#xa;
                        <mxPoint x="380" y="270" as="targetPoint"/>
                        &#xa;
                        <Array as="points">
                            &#xa;
                            <mxPoint x="420" y="270"/>
                            &#xa;
                            <mxPoint x="380" y="270"/>
                            &#xa;
                        </Array>
                        &#xa;
                    </mxGeometry>
                    &#xa;
                </mxCell>
                &#xa;
            </root>
            &#xa;
        </mxGraphModel>
        &#xa;
    </diagram>
</mxfile>